<svg version="1.2" xmlns="http://www.w3.org/2000/svg" viewBox="0 0 990 554" width="990" height="554">
	<title>1876-ai</title>
	<defs>
		<linearGradient id="g1" x1="-4" y1="493.9" x2="-4" y2="9.8" gradientUnits="userSpaceOnUse">
			<stop offset="0" stop-color="#16003b"/>
			<stop offset="1" stop-color="#221b8c"/>
		</linearGradient>
		<linearGradient id="g2" x1="423.4" y1="383.5" x2="423.4" y2="336.7" gradientUnits="userSpaceOnUse">
			<stop offset="0" stop-color="#16003b"/>
			<stop offset="1" stop-color="#221b8c"/>
		</linearGradient>
		<linearGradient id="g3" x1="516" y1="470.6" x2="516" y2="369.6" gradientUnits="userSpaceOnUse">
			<stop offset="0" stop-color="#16003b"/>
			<stop offset="1" stop-color="#221b8c"/>
		</linearGradient>
		<linearGradient id="g4" x1="358.9" y1="350.6" x2="358.9" y2="243" gradientUnits="userSpaceOnUse">
			<stop offset="0" stop-color="#16003b"/>
			<stop offset="1" stop-color="#221b8c"/>
		</linearGradient>
		<radialGradient id="g5" cx="113.3" cy="365.7" r="52.1" gradientUnits="userSpaceOnUse">
			<stop offset="0" stop-color="#ff006a"/>
			<stop offset="1" stop-color="#000000"/>
		</radialGradient>
		<linearGradient id="g6" x1="153.6" y1="540.1" x2="153.6" y2="506.6" gradientUnits="userSpaceOnUse">
			<stop offset="0" stop-color="#16003b"/>
			<stop offset="1" stop-color="#22279f"/>
		</linearGradient>
		<linearGradient id="g7" x1="178.4" y1="529.5" x2="178.4" y2="273.9" gradientUnits="userSpaceOnUse">
			<stop offset="0" stop-color="#16003b"/>
			<stop offset="1" stop-color="#2242b8"/>
		</linearGradient>
		<linearGradient id="g8" x1="287.5" y1="532.9" x2="287.5" y2="477.8" gradientUnits="userSpaceOnUse">
			<stop offset="0" stop-color="#16003b"/>
			<stop offset="1" stop-color="#22279f"/>
		</linearGradient>
		<radialGradient id="g9" cx="255.7" cy="414.4" r="34.2" gradientUnits="userSpaceOnUse">
			<stop offset="0" stop-color="#ff006a"/>
			<stop offset="1" stop-color="#000000"/>
		</radialGradient>
		<radialGradient id="g10" cx="318.7" cy="487.4" r="37.7" gradientUnits="userSpaceOnUse">
			<stop offset="0" stop-color="#ff006a"/>
			<stop offset="1" stop-color="#000000"/>
		</radialGradient>
	</defs>
	<style>
		.s0 { fill: url(#g1) } 
		.s1 { opacity: .2;mix-blend-mode: overlay;fill: #ffffff } 
		.s2 { fill: url(#g2) } 
		.s3 { fill: url(#g3) } 
		.s4 { opacity: .5;mix-blend-mode: soft-light;fill: #5fcccc } 
		.s5 { fill: #ff72a7 } 
		.s6 { fill: url(#g4) } 
		.s7 { fill: #1d46c5 } 
		.s8 { fill: #ffdede } 
		.s9 { opacity: .5;mix-blend-mode: multiply;fill: #190024 } 
		.s10 { fill: #1d1d7a } 
		.s11 { fill: #1d3490 } 
		.s12 { opacity: .1;mix-blend-mode: multiply;fill: #190024 } 
		.s13 { opacity: .2;mix-blend-mode: soft-light;fill: #5fcccc } 
		.s14 { fill: #5fcccc } 
		.s15 { mix-blend-mode: screen;fill: url(#g5) } 
		.s16 { fill: url(#g6) } 
		.s17 { fill: url(#g7) } 
		.s18 { opacity: .2;mix-blend-mode: soft-light;fill: #7ef1f6 } 
		.s19 { opacity: .5;mix-blend-mode: soft-light;fill: #7ef1f6 } 
		.s20 { fill: url(#g8) } 
		.s21 { fill: #1d52b1 } 
		.s22 { mix-blend-mode: screen;fill: url(#g9) } 
		.s23 { mix-blend-mode: screen;fill: url(#g10) } 
	</style>
	<g id="space">
		<g id="&lt;Clip Group&gt;">
			<g id="mountain-left">
				<path id="&lt;Compound Path&gt;" fill-rule="evenodd" class="s0" d="m985.1 460.7c0 0-395.4 1.2-587 4.3-43.5 0.8-76.5 1.6-92 2.5-36.8 2.1-204.8 26-204.8 26l-101.3 0.4v-183.2l20-10.1 9.7-10 30.5-71.7 5.8-3 16.1-91.9 10.5-11.3 18.9-75.6c6.8-11.6 25.3-27.3 25.3-27.3h0.1c3 1 51 16.9 85 35.5l36.8 32.7 12.3 41.8 14 7 56.2 141h14l10.2 31.5 6.7-1.5 26 39.9c0 0 240.5 78.9 271.2 99.7zm-674.4-242.7l-31.3-38.6-7.4-3.1-5.3 49.8-44 37.9 9.4 14.4 71.3-10.4v-0.1l7.3-25.9z"/>
				<path id="&lt;Path&gt;" class="s1" d="m413.8 330.7l-3.9 2.3-7.5-2.3z"/>
				<path id="&lt;Path&gt;" class="s1" d="m369.1 350.7l3 7.8-18.3-15.8z"/>
				<path id="&lt;Path&gt;" class="s2" d="m427.4 352l14-15.3 55.1 16.6 14.1 22.4 5 7.8c0 0-63.5-2.2-70.5-6.8-7-4.7-17.7-24.7-17.7-24.7z"/>
				<path id="&lt;Path&gt;" class="s3" d="m520 466.2l19.4-93c0 0 27.1-5.9 43.2-4.5 16.2 1.3 30.2 20.2 32.4 23.8 2.3 3.5 0 50.5 0 50.5h5.2l4.6 19.6c0 0-36.3 7.9-45.2 8.4-8.8 0.5-59.6-4.8-59.6-4.8z"/>
				<path id="&lt;Path&gt;" class="s4" d="m190.3 66.5l14.5 7.5-68-10.8v-53.4h0.1c3 1 51 16.9 85 35.5l36.8 32.7z"/>
				<path id="&lt;Path&gt;" class="s4" d="m285 126.8l-18.2 17.8-110.5 24.9 53-16.8h-19l62-13.7 18.7-19.2z"/>
				<path id="&lt;Path&gt;" class="s4" d="m303.4 268h7.4l19.1 5.1-103.1 13.6h-53.5l34.5-8.4h24.3z"/>
				<path id="&lt;Path&gt;" class="s4" d="m355.2 267.8l-18.4 5.3 4.4-5.3z"/>
				<path id="&lt;Path&gt;" class="s4" d="m372.1 297.8l-42.2 24.2-58.8 6 36.3-5.7 25.4-10.3h-15l28.2-6 19.4-6.7z"/>
				<path id="&lt;Path&gt;" class="s4" d="m430.7 348.5l-3.3 6.5-17.3-4.4-12-12.9z"/>
				<path id="&lt;Path&gt;" class="s4" d="m496.5 353.3l-1.2 10.7c-35.5 0.7-50.2-13.4-50.2-13.4l-3.7-13.9z"/>
				<path id="&lt;Path&gt;" class="s4" d="m588.5 369.9c15.8 4.7 26.5 22.6 26.5 22.6 0 0-7.2 5.2-15.3 5.8-8.2 0.6-42.9-7.8-49.3-13-6.3-5.1-11-12.1-11-12.1 0 0 33.2-8 49.1-3.3z"/>
				<path id="&lt;Path&gt;" class="s4" d="m329.9 389.2l23.9-5.7 48.6 3.1-13.6 2.6 47 4.8 54.7 13.8-107.7 3.5 6.3-3-30-10-60.7-9.1h-46.8l47.8-2.6z"/>
				<path id="&lt;Path&gt;" class="s4" d="m822.8 450.3l-177.9-5.5 24.4-7.4z"/>
				<path id="&lt;Path&gt;" class="s4" d="m150.8 190h22.5l60.1 8.8-41.3 13.2-18.8-13.5z"/>
				<path id="&lt;Path&gt;" class="s5" d="m546.9 375.5c0 0 25.5-7 39.4-3 13.8 3.9 24.5 18.5 24.5 19.8 0 1.4-18.9 4.2-29.9 1.4-11-2.9-28.1-9.5-29.3-10.2-1.2-0.7-4.7-8-4.7-8z"/>
				<path id="&lt;Path&gt;" class="s5" d="m489.7 354.8c0 2.4 0.9 3.8 0 4.5-0.9 0.6-13 1.5-20.9 0-7.8-1.6-16.4-7.4-17.8-8.6-1.5-1.1-3-7.7-3.1-9.6 0 0 41.9 11.3 41.8 13.7z"/>
				<path id="&lt;Path&gt;" class="s6" d="m404.3 333l5.8 17.6c-17.3-1.4-47.2-18.8-47.2-18.8l2.5-32.5 0.1-48.5c0 0 5.6-8.8 13.4-8.3 7.7 0.5 8.9 5.3 8.9 5.3l4.2 69z"/>
				<path id="&lt;Path&gt;" class="s4" d="m377 243.3c8.3-1.3 10.8 4.4 10.8 4.4 0 0-3.8 5.3-11 6-7.3 0.8-11.3-2.9-11.3-2.9 0 0 3.1-6.1 11.5-7.5z"/>
				<path id="&lt;Path&gt;" class="s7" d="m368.1 250.8c0 0 2.7-4.1 7.3-5.3 4.5-1.3 10.5 1.8 10.5 1.8 0 0-3.1 5.1-9.2 5.2-6.2 0.1-8.6-1.7-8.6-1.7z"/>
				<path id="&lt;Path&gt;" class="s8" d="m554.8 384.8c0 0 15.1 0 22.4 0.5 7.3 0.6 27.1 8.8 27.1 8.8 0 0-11.4 2.3-21.5 0-10-2.4-28-9.3-28-9.3z"/>
				<path id="&lt;Path&gt;" class="s8" d="m451 350.7c0 0 12.3 0 19.3 1.3 7 1.3 15.5 7.9 15.5 7.9 0 0-10.3 1-15.8-0.4-5.5-1.5-14.5-5.1-19-8.8z"/>
				<path id="&lt;Path&gt;" class="s9" d="m92.6 112.7l44.2-49.5 60.9 73.1 7.1-62.3-14.5-7.5 24 4 12.3 74.1-34.5 7.7 17.2 0.4-53 16.8-19.5 10-40.3-6.8v-45z"/>
				<path id="&lt;Path&gt;" class="s9" d="m398.1 465c-43.5 0.8-76.5 1.6-92 2.5-36.8 2.1-168.8 20.6-168.8 20.6l19-124.1c-12.5-6.5-27.7-9.8-43-9.5l-24.5-139.5 62-25 22.5 8.5 18.8 13.5-16.4 82-2.4-56.8-7.9 36.3-9.1 13.2 2.3 18.1-7.8 36.3 100.8 48.1h46.8l26.9 55.1 4.6-49.2 29.2 3.2 30 10-6.3 3 1.3 23.7 7.9 8.9z"/>
				<path id="&lt;Path&gt;" class="s9" d="m336.8 273.1l-26-5.1-7.3-0.1 7.3-25.9v-24l-31.4-38.7-7.4-3.1-5.2 49.8-23-73.3 34.6 20.6 27 31 13.9 8.6-3.9 33.2z"/>
				<path id="&lt;Path&gt;" class="s9" d="m329.9 322v67.2l-30.5-2.6-24-59z"/>
				<path id="&lt;Path&gt;" class="s9" d="m365.5 250.8l5.5 2.6 2.8 42.1-10.9 36.3-9.1-23.5 11.7-6.7z"/>
				<path id="&lt;Path&gt;" class="s9" d="m445.1 350.6l-9.1 20.6-8.6-16.2 3.3-6.5 10.7-11.8z"/>
				<path id="&lt;Path&gt;" class="s9" d="m550.4 385.3l4.4 26v18.8l4.1 4.4-4.1 35-34.8-3.3 19.4-93z"/>
				<path id="&lt;Path&gt;" class="s9" d="m604.3 466.9l20.5-12.9 4.5 6.4 86-6.4 44 6.4-134.5 2.2z"/>
				<path id="&lt;Path&gt;" class="s9" d="m460.8 408.8l3.6 5.9-8.4-5.8-14.6-3.9z"/>
				<path id="&lt;Path&gt;" class="s9" d="m577.2 433l10.6 10.9h-5.3z"/>
				<path id="&lt;Path&gt;" class="s9" d="m231.1 284.8l-4.5 11.7-3.8-9.8z"/>
				<path id="&lt;Path&gt;" class="s10" d="m581.4 441l6.4 2.9h-8.9l-1.7-10.9z"/>
				<path id="&lt;Path&gt;" class="s10" d="m456 408.9l8.4 5.8-13.4-5.6-9.6-4.1z"/>
				<path id="&lt;Path&gt;" class="s10" d="m231.1 284.8l-4.2 2.7-0.3 9-3.8-9.8z"/>
				<path id="&lt;Path&gt;" class="s11" d="m332 320.8l-2.1 7.2-8.3-5.2z"/>
				<path id="&lt;Path&gt;" class="s11" d="m385.3 411.3l2.5 6.2-3.7 17.5-1.3-23.7z"/>
				<path id="&lt;Path&gt;" class="s11" d="m599.7 398.3c1.5 0.2 6.6-1.5 6.6-1.5 0 0-5.5 3.7-6.6 4.5-1.2 0.8-9.3-3.9-9.3-3.9 0 0 7.8 0.7 9.3 0.9z"/>
				<path id="&lt;Path&gt;" class="s11" d="m495.3 364l1.2 4.4-4.2-4.4z"/>
				<path id="&lt;Path&gt;" class="s4" d="m404.3 333l-8.5-5-6.4-3.6 2.6-7.7z"/>
				<path id="&lt;Path&gt;" class="s9" d="m385.9 286.7l-0.6-4.2 2.5-9.4z"/>
				<path id="&lt;Path&gt;" class="s10" d="m387.8 273.1l0.9 6.1-2.8 7.5z"/>
				<path id="&lt;Path&gt;" class="s11" d="m195.9 210.8l-4.4 4.2-1.8-4.8z"/>
				<path id="&lt;Path&gt;" class="s9" d="m136.8 342.7l14-1.6c0 0 79.5 16.9 93 19.1 13.5 2.3 45.8 2.3 45.8 2.3 0 0 40.3 4.4 40.3 3.7 0-0.7 33.6-17.6 35.6-17.4 2 0.2 44.6 1.8 44.6 1.8l-44.4-0.3c0 0-34.5 17.6-35.8 17.6-1.2 0-38.6-3.9-39.8-4.2-1.2-0.4-39.9-1.4-46.4-2.4-6.5-1-91.4-18.7-93.4-18.7-2 0-29.5 4.8-29.5 4.8z"/>
				<path id="&lt;Path&gt;" class="s9" d="m136.8 218.7c0 0 47.9 30.3 48 30.2 0-0.2 42.8-31.2 46.3-31.7 3.9-0.7 27.8 1.5 31.1 1.4 3.6-0.2 6-6 6-6 0 0-1.3 6.6-3.2 7.9-1.8 1.3-31.9-3.4-33.9-3-1.9 0.4-45 33.1-46.7 33.3-1.8 0.2-47.6-28.6-47.6-28.6z"/>
				<path id="&lt;Path&gt;" class="s5" d="m136.8 14.3c0 0 36.5 12.1 48.5 16.1 12 4 47.9 29.6 49 31.8 1.1 2.3-39.5 1.4-55.3-0.8-15.7-2.3-66.8-8-66.8-8 1.7-15.6 10.6-24.9 24.6-39.1z"/>
				<path id="&lt;Path&gt;" class="s8" d="m136.8 31.8c12.9 0.2 42 13.4 48.7 17.4 6.8 4.1 17.4 14 17.4 14 0 0-11.6 0.1-28.1-2.4-16.6-2.6-62.6-7.4-62.6-7.4 0 0 11.8-21.9 24.6-21.6z"/>
				<g id="&lt;Group&gt;" style="opacity: .5">
					<path id="&lt;Path&gt;" class="s12" d="m539.9 461.6c-0.2-0.9-0.4-1.7-0.5-2.6-0.2-1-0.2-2-0.3-3q-0.3-11.3-0.7-22.6c-0.1 3.9-0.1 8 1.3 11.7 0.4 1 0.9 2.1 0.9 3.2 0 0.7-0.1 1.3-0.1 2-0.1 1.4 0.5 2.9 1.5 3.9 1-1 1.1-2.6 1.1-4 0.3-10.5 1.2-21.1 2.2-31.6q0.4-5.3 0.9-10.6-0.1 5.4-0.2 10.7c0 0.5 0 1-0.1 1.4-0.1 0.3-0.3 0.6-0.4 0.9-0.1 0.3-0.1 0.7 0 1.1q0.5 3.7 1 7.4c0.2 1.5 0.3 3.2-0.8 4.3-0.2 0.2-0.4 0.3-0.5 0.6-0.2 0.4 0.1 0.8 0.2 1.2 0.9 2 0.2 4.1-0.2 6.2-0.3 2.1-0.2 4.2-0.2 6.3q0.1 3 0.2 6c0.1 0.7 0.1 1.5 0.5 2.1 0.6 0.8 1.9 1.1 2.2 2.1 0.1 0.4-0.1 0.9-0.2 1.3-0.5 2.2 0.2 4.4 1 6.5q0.5 1.6 1 3.2c-0.1-0.4-3.8-0.6-4.2-0.6-1.3-0.1-2.9 0.2-4.2-0.1-1.5-0.3-1-1-1-2.5 0-1.5-0.1-3-0.4-4.5z"/>
					<path id="&lt;Path&gt;" class="s12" d="m526.8 463c0.7-0.1 0.9-1.1 0.9-1.8q0.2-7.2 0.3-14.4c0-0.8 0-1.7 0.5-2.3 0.4-0.7 1.4-1 2-0.4q0.1 5.2 0.2 10.4c-0.5-0.2-1 0.2-1.3 0.6-0.2 0.5-0.2 1-0.2 1.5 0.1 3.5 0.6 7 0.6 10.6-0.7-0.7-1.8-0.5-2.4-1-0.7-0.6-0.5-2.4-0.6-3.2z"/>
					<path id="&lt;Path&gt;" class="s12" d="m532.5 427.6c0.1-0.7 0.2-1.4 0.4-2 0.3-0.6 0.6-1.1 0.9-1.6 3.8-6 2.6-13.9 5.2-20.4-0.2 7.7-0.9 15.4-2.3 23q-1.6 0.6-3.1 1.2-0.1 5.3-0.2 10.6c-1.3 0.5-1.9 1.6-2.5 2.7-0.2-2.1 0.5-4.7 0.8-6.8q0.4-3.4 0.8-6.7z"/>
					<path id="&lt;Path&gt;" class="s12" d="m539.4 402.1c-0.1-1 0-2 0.3-3q0.3 0 0.7 0-0.2 1.6-0.2 3.2-0.3-0.2-0.7-0.3z"/>
					<path id="&lt;Path&gt;" class="s12" d="m557.9 421c1 0.2 1.2 2.9 1.3 3.6 0.1 0.8 0.2 1.7-0.1 2.5-0.2 0.7-0.8 1.3-0.7 2.1q-0.4-2.2-0.8-4.4-0.4-0.1-0.7-0.2c0.1-0.8 0.1-3.7 1-3.6z"/>
					<path id="&lt;Path&gt;" class="s12" d="m563.2 439.2c0.3 1.5 0.5 3 0.8 4.5 0.3 2.5 0.1 5-0.8 7.3 1.6 1.5 2.5 3.7 2.5 5.9 0.6-0.1 1.3-0.4 1.6-1 0.8 1.2 1.3 2.5 1.5 3.9 0.1 1.1 0.1 2.2 0.3 3.3 0.4 1.6 1.2 3 2.4 4 2.5-1.1 5.6-0.5 7.6 1.4-0.1-2 0-3.9 0.4-5.7 0.7 0.1 1.4-0.1 1.9-0.4 0.5 2.6 0.7 5.3 0.5 8-4.3 1.5-9 0.8-13.4 0-0.2-0.1-0.4-0.1-0.5-0.2-0.1-0.1-0.2-0.3-0.2-0.5q-0.9-3.9-1.7-7.8-0.5 0.2-1 0.5-0.5-3.9-1-7.8-0.7-0.2-1.4-0.2c0.2 0-0.6-13.9 0.5-15.2z"/>
				</g>
				<path id="&lt;Path&gt;" class="s4" d="m598.4 468v-33l3.1-5.8-1.8-27.9 6.6-4.5 8.7-4.3v50.5l-4.2 4.5z"/>
				<path id="&lt;Path&gt;" class="s11" d="m597 436.2c0.2-1.4 1-3 2-3.9 1.3 1.9-0.7 5.6-1.3 7.7 0.2-0.7-0.9-2.7-0.7-3.8z"/>
				<path id="&lt;Path&gt;" class="s11" d="m405.7 438c0-0.3 0.3-0.5 0.6-0.4 0.3 0.1 0.5 0.3 0.6 0.6q1.3 1.8 2.6 3.6c-1.5-0.6-2.7-1.7-3.4-3.1z"/>
				<path id="&lt;Path&gt;" class="s9" d="m147.2 422.6l3.7-29.5-4.1 19 16.1-22.8 15.8-25.3-13 26.6-3.1 2.1-19.6 52.8 10.1-12.1-7.7 15.5 0.5 15.6 28.7-42.7 2.1-12.2 25.3-30.5-23.6 42.7-41.1 66.3z"/>
				<path id="&lt;Path&gt;" class="s9" d="m136.8 179.5l-31.5-5.3 30.2-45.9-2-36 3 3.8 4.8 21 0.4-14.5 3.2 25.5 2.1-2.7-0.6-3.7 0.8-3.1 1.8 16.4 5.1 14.6-0.2-8.9-2-2.3 1.2-5.2 8.7 32.8z"/>
				<path id="&lt;Path&gt;" class="s9" d="m456 408.9l10.8-0.9-2.4 1.8 7.1 19.4 3.8 9.2 9 5.5-10.1-4.2-2.7-3.9-5-14.5-2.1-6.6z"/>
				<path id="&lt;Path&gt;" class="s13" d="m490.5 407.8l4.9 37.2h-5.3l-5.8-1.1-9-5.5-10.9-28.6 2.4-1.8z"/>
				<path id="&lt;Path&gt;" class="s9" d="m306.7 212.9l8.6 2.1 4-2.1-1.7 3.6-4.6 2.3-2.2-0.8z"/>
				<path id="&lt;Path&gt;" class="s9" d="m217.3 204l-1.4-4.9 0.9-0.7 2.3-1.7 14.3 2.1-13.5-1.3-1.9 2.8 2.7 2.6 2.1 12.1z"/>
				<path id="&lt;Path&gt;" class="s13" d="m233.4 198.8l-2 13.2-4.8 1.9-3.8 1.1-2.1-12.1-2.7-2.6 1.9-2.8z"/>
				<g id="&lt;Group&gt;" style="opacity: .5;mix-blend-mode: soft-light">
					<path id="&lt;Path&gt;" class="s14" d="m354.4 383.8c-0.2 0.1-0.6 0-0.6-0.3 0.6-0.6 1.6-0.5 2.3 0 0.6 0.6 0.9 1.4 1 2.2 0.1 1.5-0.4 3.1-1.6 4.1-1.2 1-2.9 1.2-4.2 0.4-0.6-0.3-1-0.8-1.1-1.5 0-0.3 0.2-0.6 0.3-0.9 0.8-1.8 2-3.4 3.5-4.7z"/>
					<path id="&lt;Path&gt;" class="s14" d="m362.9 383.9c0-1.1 1.8-1.6 2.6-0.8 0.8 0.8 0.5 2.3-0.3 3-0.9 0.7-2.2 0.8-3.3 0.5-0.2-1.1 0.1-2.3 0.9-3.1z"/>
					<path id="&lt;Path&gt;" class="s14" d="m359.8 393.8q0 0.1 0 0.1c0.5-0.2 1.3 0.2 1.4 0.8 0 0.1 0 0.3-0.2 0.3 0 0-0.1-0.1-0.1-0.1-0.4-0.2-0.8 0.3-1.2 0.2q-0.1 0-0.1 0 0-0.1 0-0.2 0-0.6 0.2-1.1z"/>
					<path id="&lt;Path&gt;" class="s14" d="m334.8 380q-0.1 0.2-0.1 0.3c1-0.5 2.5 0.3 2.7 1.5 0 0.2-0.1 0.5-0.3 0.5-0.1 0-0.2-0.1-0.4-0.2-0.6-0.4-1.3 0.5-2.1 0.4q-0.1 0-0.2-0.1-0.1-0.1-0.1-0.2 0-1.1 0.4-2.2z"/>
					<path id="&lt;Path&gt;" class="s14" d="m316 372.8q-0.1 0.1-0.2 0.3c1.1-0.5 2.6 0.2 2.7 1.4 0.1 0.2 0 0.5-0.2 0.5-0.2 0-0.3-0.1-0.4-0.1-0.6-0.4-1.4 0.5-2.1 0.4q-0.2 0-0.3-0.1 0-0.1 0-0.3 0-1.1 0.4-2.1z"/>
					<path id="&lt;Path&gt;" class="s14" d="m354.4 397.9q-0.1 0-0.2 0.1c0.3 0.1 0.6 0.3 0.6 0.6 0.1 0.2-0.1 0.5-0.3 0.6-0.2 0.1-0.5 0.1-0.7 0.1-0.1-0.5 0.1-1.1 0.5-1.4z"/>
					<path id="&lt;Path&gt;" class="s14" d="m357.7 399.5c0.2 0.2 0.2 0.6 0 0.7-0.1 0.1-0.4 0.1-0.4 0.3q0 0.1 0 0.2 0 0.9 0.1 1.9-0.4-0.4-0.9-0.7c-0.1-0.1-0.2-0.2-0.3-0.4 0-0.1 0-0.2 0.1-0.4 0.2-0.8 0.6-3.3 1.4-1.6z"/>
					<path id="&lt;Path&gt;" class="s14" d="m369.1 415.8c0.1 0.3 0.1 0.6-0.1 0.8-0.1 0.1-0.4 0.1-0.4 0.3q0 0 0 0.1 0.1 1 0.1 2-0.4-0.5-0.9-0.8c-0.1-0.1-0.2-0.2-0.3-0.3 0-0.1 0-0.3 0.1-0.4 0.2-0.8 0.6-3.3 1.5-1.7z"/>
					<path id="&lt;Path&gt;" class="s14" d="m344.9 406.9c0.1 0.2 0.4-0.1 0.6-0.2 0.3-0.1 0.8 0.3 0.7 0.7-0.1 0.3-0.5 0.6-0.9 0.6q0-0.3 0-0.6z"/>
					<path id="&lt;Path&gt;" class="s14" d="m342.4 397.9c0.3-0.4 1.1-0.4 1.3 0.1 0.3 0.5-0.2 1.2-0.7 1.1-0.6 0-0.9-0.7-0.6-1.2z"/>
					<path id="&lt;Path&gt;" class="s14" d="m340 389.4c-0.1-0.5-0.2-1 0.2-1.2 0.4-0.2 0.8 0.2 1 0.5 0.1 0.2 0.2 0.3 0.2 0.5-0.2 0.4-0.9 0-1.2 0.3-0.1 0-0.1-0.2 0-0.2z"/>
					<path id="&lt;Path&gt;" class="s14" d="m360.8 375.8c0.2-0.3 0.8-0.4 1.1-0.2 0.4 0.2 0.6 0.6 0.8 1q0 0.1 0 0.3 0 0.3-0.1 0.5c-0.4 0.5-1.3 0.3-1.6-0.2-0.3-0.6-0.2-1.3 0-1.8z"/>
					<path id="&lt;Path&gt;" class="s14" d="m353.7 357.9c0.5-0.4 1.6-0.5 2.2-0.2 0.7 0.3 0.7 1.3 1.6 1.5 0.1 0 0.2 0.1 0.3 0.2 0.1 0.1 0.1 0.3 0 0.5-0.2 0.7-0.5 1.5-1.2 1.7-0.4 0.1-0.9 0-1.3 0.2-0.2 0.1-0.3 0.3-0.5 0.3-0.1 0.1-0.3 0-0.5-0.1-1.6-0.6-2-3-0.6-4.1z"/>
					<path id="&lt;Path&gt;" class="s14" d="m357.6 392.4q0-0.2 0.1-0.5c0.3 0.3 0.4 0.7 0.4 1.1 0 0.3 0 0.5-0.2 0.6-0.1 0.1-0.3 0-0.5 0-0.3 0.1-0.6 0.4-0.9 0.2-0.1-0.2-0.1-0.4 0-0.5 0.1-0.2 0.2-0.3 0.4-0.4q0.5-0.3 1-0.6z"/>
					<path id="&lt;Path&gt;" class="s14" d="m363.6 391.1c0.4-0.2 0.9-0.3 1.3-0.1-0.1 0.3-0.3 0.7-0.6 0.8-0.3 0.1-0.7-0.2-0.5-0.5z"/>
					<path id="&lt;Path&gt;" class="s14" d="m361.8 396.2c-0.1-0.3 0.1-0.5 0.3-0.6 0.2-0.1 0.5-0.1 0.7-0.1 0.3 0 0.6 0.1 0.7 0.3 0.2 0.2 0.3 0.5 0 0.7-0.2 0.1-0.5-0.1-0.8-0.1-0.2 0.1-0.5 0.4-0.7 0.3-0.2-0.1-0.3-0.2-0.3-0.4 0-0.2 0.1-0.3 0.1-0.5z"/>
					<path id="&lt;Path&gt;" class="s14" d="m361.3 397.9c0.1-0.1 0.3-0.1 0.4 0 0.1 0.1 0.1 0.3 0.1 0.5q0 0.1-0.1 0.2c-0.1 0.2-0.4 0.2-0.5 0.1-0.2-0.1-0.2-0.4-0.1-0.6 0.2-0.1 0.4-0.2 0.6 0z"/>
					<path id="&lt;Path&gt;" class="s14" d="m381.8 407c0.1-0.2 0.3-0.1 0.4 0 0.1 0.1 0.2 0.3 0.1 0.4q0 0.2 0 0.3c-0.1 0.2-0.4 0.2-0.6 0.1-0.2-0.2-0.2-0.4 0-0.6 0.1-0.2 0.4-0.2 0.5-0.1z"/>
					<path id="&lt;Path&gt;" class="s14" d="m359 397.4c0.2-0.1 0.4 0.1 0.4 0.2 0 0.2-0.2 0.4-0.3 0.4-0.2 0-0.4 0-0.5-0.1-0.1-0.3 0.3-0.6 0.6-0.5z"/>
					<path id="&lt;Path&gt;" class="s14" d="m337.4 403.8c0.2-0.1 0.4 0 0.4 0.2 0 0.2-0.2 0.3-0.3 0.3-0.2 0.1-0.4 0-0.5 0-0.1-0.3 0.3-0.7 0.6-0.5z"/>
					<path id="&lt;Path&gt;" class="s14" d="m352.2 395c0.3-0.1 0.7 0 0.8 0.2 0.2 0.3 0.2 0.7-0.1 0.8-0.1 0.1-0.3 0-0.5 0q-0.4 0-0.9-0.1c0-0.3 0.3-0.7 0.7-0.9z"/>
					<path id="&lt;Path&gt;" class="s14" d="m346.6 387.1q0-0.9 0-1.8c0.3-0.1 0.5 0.3 0.6 0.6 0.1 0.3 0.1 0.6 0 0.9-0.1 0.3-0.4 0.5-0.7 0.3z"/>
					<path id="&lt;Path&gt;" class="s14" d="m347.1 378c0.3 0 0.6-0.1 0.9 0 0.2 0.1 0.5 0.4 0.4 0.7 0 0.2-0.1 0.3-0.3 0.4-0.4 0.3-0.9 0.3-1.2 0-0.3-0.4-0.1-1 0.3-1.1z"/>
					<path id="&lt;Path&gt;" class="s14" d="m340.3 391.7c0.3-0.3 0.8-0.1 0.9 0.3 0 0.4-0.4 0.7-0.7 0.8-0.3 0-0.6 0-0.9-0.2 0.1-0.4 0.5-0.7 0.9-0.8z"/>
					<path id="&lt;Path&gt;" class="s14" d="m343.6 389.2c0.2-0.2 0.5-0.3 0.8-0.2q0 0.5 0 0.9c-0.4 0.2-0.9-0.1-1-0.5z"/>
					<path id="&lt;Path&gt;" class="s14" d="m352 378.4c-0.1-1.5 2.7-1.3 3.6-1.8 0.5-0.3 1.1-0.7 1.5-0.5 0.4 0.3 0.4 0.9 0.3 1.4 0 0.2-0.1 0.3-0.2 0.4-0.1 0.1-0.2 0.1-0.3 0.2q-0.7 0.2-1.4 0.4c-0.8 0.3-3.5 1.5-3.5-0.1z"/>
					<path id="&lt;Path&gt;" class="s14" d="m348 381.2q0-0.2 0-0.4c0.2 0.1 0.5 0.1 0.7 0.3 0.3 0.1 0.4 0.4 0.3 0.7-0.1 0.3-0.5 0.4-0.6 0.1q-0.3-0.3-0.3-0.7z"/>
					<path id="&lt;Path&gt;" class="s14" d="m365 395.2c0.2-0.2 0.5-0.2 0.7-0.1 0.2 0 0.3 0.3 0.4 0.5 0 0.2-0.1 0.3-0.3 0.3q-0.1 0-0.2-0.1-0.3-0.2-0.6-0.5 0-0.1 0.1-0.1z"/>
					<path id="&lt;Path&gt;" class="s14" d="m369.4 396.6c0.1 0.3 0.5 0.2 0.8 0.2 0.2-0.1 0.6-0.2 0.8 0q0.1 0.1 0.1 0.2c-0.1 0.2-0.3 0.2-0.5 0.3-0.2 0-0.3 0.1-0.4 0.2-0.4 0.2-0.8 0.2-1.1 0-0.1-0.2-0.1-0.5 0.1-0.6 0.1-0.2 0.3-0.2 0.5-0.2z"/>
					<path id="&lt;Path&gt;" class="s14" d="m368.4 399.3c0.1-0.2 0.3-0.2 0.4-0.1 0.2 0.1 0.2 0.3 0 0.5-0.1 0.1-0.3 0.1-0.5 0q0.1-0.2 0.1-0.4z"/>
					<path id="&lt;Path&gt;" class="s14" d="m374.4 404.2c0-0.1 0.3-0.2 0.4-0.1 0.2 0.1 0.2 0.4 0 0.5-0.1 0.1-0.3 0.1-0.5 0q0.1-0.2 0.1-0.3z"/>
					<path id="&lt;Path&gt;" class="s14" d="m356.8 397.1c0.2-0.2 0-0.4-0.2-0.5-0.2-0.1-0.4 0-0.7-0.1-0.2 0-0.4-0.2-0.5-0.4 0-0.1-0.1-0.2 0-0.3q0.1-0.1 0.2-0.2c0.4-0.2 0.8-0.3 1.2-0.2 0.5 0 0.9 0.3 1 0.7 0.1 0.3 0 0.6-0.2 0.8-0.2 0.2-0.6 0.3-0.9 0.2z"/>
					<path id="&lt;Path&gt;" class="s14" d="m334.4 416.1c0.1-0.1-0.1-0.4-0.3-0.5-0.2 0-0.4 0-0.6 0-0.2-0.1-0.4-0.2-0.5-0.4-0.1-0.1-0.1-0.3 0-0.4q0-0.1 0.2-0.1c0.4-0.2 0.8-0.4 1.2-0.3 0.4 0 0.8 0.3 0.9 0.7 0.1 0.3 0 0.6-0.2 0.8-0.2 0.2-0.5 0.3-0.8 0.2z"/>
					<path id="&lt;Path&gt;" class="s14" d="m352 400.1q0.3 0.4 0.7 0.7c0.1 0.1 0.1 0.1 0.1 0.2 0 0.1-0.1 0.2-0.2 0.2-0.3 0-0.6-0.1-0.8-0.3-0.1-0.2-0.1-0.6 0.2-0.7z"/>
					<path id="&lt;Path&gt;" class="s14" d="m340.2 407q0.9 0.3 1.5 0.9c0.2 0.2 0.4 0.5 0.4 0.7 0 0.6-0.7 0.8-1.2 0.8-0.4 0-0.8 0-1.1-0.2-0.4-0.3-0.4-0.8-0.8-1.1-0.2-0.1-0.6-0.3-0.5-0.6 0.1-0.1 0.2-0.1 0.3-0.2 0.6-0.3 1.4-0.3 2-0.1z"/>
					<path id="&lt;Path&gt;" class="s14" d="m329.6 389.1q0.4 0.8 0.5 1.7c0 0.2 0 0.3 0 0.4-0.1 0.1-0.3 0.1-0.4 0.1q-0.5 0-1 0c-0.3 0-0.8-0.1-0.8-0.5-0.1-0.2 0.1-0.5 0.2-0.7 0.3-0.3 0.7-0.7 1.1-0.4z"/>
					<path id="&lt;Path&gt;" class="s14" d="m340.3 381.8c-2.5-2.9-5.5 0.2-4.1 3.1 1.5 3 6.2-0.7 4.1-3.1z"/>
					<path id="&lt;Path&gt;" class="s14" d="m360.5 388c0.5-0.2 1.1 0.2 1.1 0.7-0.4 0.2-0.8 0.3-1.2 0.1-0.4-0.1-0.7-0.6-0.5-0.9q0.3-0.2 0.6-0.3z"/>
					<path id="&lt;Path&gt;" class="s14" d="m373.2 388.8q-0.5 0-0.9 0c0-0.9 0.6-1.7 1.4-2 0.8-0.2 1.7-0.1 2.4 0.4 0.6 0.3 1.1 1.1 0.7 1.6-0.2 0.3-0.6 0.4-1 0.4-0.3-0.1-0.7-0.2-1-0.3q-1-0.3-2.1-0.2 0-0.3 0-0.6z"/>
					<path id="&lt;Path&gt;" class="s14" d="m373.7 394.4q-0.3-0.1-0.6-0.2c0.7-0.5 2.1-0.5 3.3-0.4 0.4 0 0.7 0 1 0.1 0.3 0.1 0.5 0.3 0.3 0.5-0.2 0.1-0.7 0.1-1.1 0.2q-1.1 0-2.2 0c-0.3 0-0.7 0-1-0.1-0.2-0.1-0.3-0.3-0.1-0.4z"/>
					<path id="&lt;Path&gt;" class="s14" d="m372.9 398.1c0.1-0.1 0.2-0.1 0.3 0 0.1 0.1 0.2 0.2 0.2 0.3q0 0.2 0 0.3c-0.1 0.2-0.3 0.4-0.5 0.3-0.2 0-0.4-0.2-0.4-0.3q-0.1-0.2 0-0.3c0-0.1 0.1-0.2 0.2-0.1z"/>
					<path id="&lt;Path&gt;" class="s14" d="m356.8 408.8c0.2 0 0.3-0.1 0.5 0 0.1 0 0.3 0.1 0.3 0.3 0 0.1 0 0.2-0.1 0.3-0.4 0.7-1.5 0.8-2.1 0.3-0.1-0.1-0.2-0.2-0.2-0.4q0.8-0.3 1.6-0.5z"/>
					<path id="&lt;Path&gt;" class="s14" d="m359.5 400.4q0.3 0 0.7-0.1 0.1 0 0.1 0c0.2 0.1 0.2 0.4 0 0.5-0.2 0-0.4 0-0.5 0q0-0.2 0-0.4z"/>
					<path id="&lt;Path&gt;" class="s14" d="m347.4 399.5c0.4-0.1 0.9 0.2 1 0.6 0.1 0.4-0.2 0.9-0.7 0.9q-0.2 0.1-0.4 0c-0.2-0.1-0.3-0.5-0.3-0.7 0.1-0.3 0.2-0.6 0.4-0.8z"/>
					<path id="&lt;Path&gt;" class="s14" d="m333.2 402.7c-0.1-0.4 0.4-0.8 0.8-0.6q0.1 0.3 0.1 0.7c-0.2 0.1-0.5 0-0.7-0.1z"/>
					<path id="&lt;Path&gt;" class="s14" d="m333.9 395.7c0.1-0.2 0.3-0.4 0.5-0.4 0.1 0.3 0 0.6-0.2 0.7-0.2 0.1-0.5-0.3-0.2-0.4z"/>
					<path id="&lt;Path&gt;" class="s14" d="m363.4 380.6c0.3 0.1 0.4 0.4 0.3 0.7q-0.2 0-0.4 0 0-0.3 0-0.6z"/>
					<path id="&lt;Path&gt;" class="s14" d="m321 355.8c0.3 0.1 0.5 0.4 0.4 0.7q-0.3 0.1-0.5 0 0-0.3 0-0.6z"/>
					<path id="&lt;Path&gt;" class="s14" d="m339.1 373.4c-0.2-0.6 0-1.3 0.5-1.8q0.1-0.1 0.2-0.2c0.1 0 0.2 0.1 0.3 0.2 0.5 0.5 1.1 1.3 0.8 2-0.3 0.5-1.3 0.6-1.6 0.1q0.1-0.3 0.2-0.6z"/>
					<path id="&lt;Path&gt;" class="s14" d="m379.7 358.2c-0.2-0.7 0-1.4 0.5-1.9q0.1-0.1 0.2-0.1c0.1 0 0.2 0.1 0.3 0.2 0.5 0.5 1.1 1.2 0.8 1.9-0.3 0.6-1.3 0.7-1.6 0.1q0.1-0.3 0.2-0.6z"/>
				</g>
				<g id="&lt;Group&gt;" style="opacity: .5;mix-blend-mode: soft-light">
					<path id="&lt;Path&gt;" class="s14" d="m308.9 296.9c-0.2 0.1-0.5 0-0.5-0.3 0.6-0.6 1.6-0.5 2.2 0 0.7 0.6 1 1.4 1.1 2.2 0.1 1.6-0.5 3.1-1.6 4.1-1.2 1-3 1.2-4.3 0.4-0.5-0.3-1-0.8-1-1.4 0-0.4 0.1-0.7 0.3-1 0.8-1.8 2-3.4 3.5-4.7z"/>
					<path id="&lt;Path&gt;" class="s14" d="m328.7 285.4c0.1-1.1 1.8-1.7 2.6-0.9 0.8 0.8 0.5 2.3-0.3 3.1-0.9 0.7-2.2 0.8-3.3 0.5-0.2-1.1 0.1-2.4 1-3.2z"/>
					<path id="&lt;Path&gt;" class="s14" d="m325.6 295.3q0 0 0 0.1c0.5-0.3 1.3 0.2 1.4 0.8 0 0.1 0 0.3-0.1 0.3-0.1 0-0.2-0.1-0.2-0.1-0.4-0.3-0.8 0.2-1.2 0.2q0 0-0.1-0.1 0 0 0-0.1 0-0.6 0.2-1.1z"/>
					<path id="&lt;Path&gt;" class="s14" d="m170.4 172.1q-0.1 0.2-0.2 0.3c1.1-0.5 2.6 0.3 2.7 1.5 0.1 0.2 0 0.5-0.2 0.5-0.2 0-0.3-0.1-0.4-0.2-0.6-0.4-1.4 0.5-2.1 0.4q-0.2 0-0.3-0.1 0-0.1 0-0.2 0-1.1 0.4-2.2z"/>
					<path id="&lt;Path&gt;" class="s14" d="m151.5 164.9q0 0.1-0.1 0.3c1.1-0.5 2.5 0.2 2.7 1.4 0 0.2 0 0.5-0.3 0.5-0.1 0-0.2-0.1-0.3-0.1-0.7-0.4-1.4 0.5-2.2 0.4q-0.1 0-0.2-0.1-0.1-0.1-0.1-0.3 0.1-1.1 0.4-2.1z"/>
					<path id="&lt;Path&gt;" class="s14" d="m320.2 299.4q-0.1 0-0.2 0.1c0.3 0.1 0.6 0.3 0.7 0.6 0 0.2-0.2 0.4-0.4 0.5-0.2 0.2-0.5 0.2-0.7 0.2-0.1-0.5 0.1-1.1 0.5-1.5z"/>
					<path id="&lt;Path&gt;" class="s14" d="m323.6 301c0.1 0.2 0.1 0.5-0.1 0.7-0.1 0.1-0.4 0.1-0.4 0.3q0 0.1 0 0.1 0.1 1 0.1 2-0.4-0.4-0.9-0.8c-0.1-0.1-0.2-0.2-0.3-0.3 0-0.1 0-0.3 0.1-0.4 0.2-0.8 0.6-3.3 1.5-1.6z"/>
					<path id="&lt;Path&gt;" class="s14" d="m204.6 207.9c0.1 0.3 0.2 0.6 0 0.8-0.1 0.1-0.4 0.1-0.4 0.3q-0.1 0-0.1 0.1 0.1 1 0.2 2-0.4-0.5-0.9-0.8c-0.1-0.1-0.2-0.2-0.3-0.3 0-0.1 0-0.3 0-0.4 0.3-0.8 0.7-3.3 1.5-1.7z"/>
					<path id="&lt;Path&gt;" class="s14" d="m180.5 199c0.1 0.2 0.4-0.1 0.6-0.2 0.3-0.1 0.7 0.3 0.7 0.7-0.1 0.3-0.5 0.6-0.9 0.6q0-0.3 0-0.6z"/>
					<path id="&lt;Path&gt;" class="s14" d="m178 190c0.3-0.4 1.1-0.4 1.3 0.1 0.2 0.5-0.2 1.2-0.8 1.1-0.5 0-0.8-0.7-0.6-1.2z"/>
					<path id="&lt;Path&gt;" class="s14" d="m175.6 181.5c-0.1-0.5-0.2-1 0.2-1.2 0.4-0.2 0.8 0.2 1 0.5 0.1 0.2 0.2 0.3 0.2 0.5-0.2 0.4-1 0-1.2 0.3-0.1 0-0.1-0.2 0-0.2z"/>
					<path id="&lt;Path&gt;" class="s14" d="m196.4 167.9c0.2-0.3 0.7-0.4 1.1-0.2 0.4 0.2 0.6 0.6 0.7 1q0.1 0.1 0.1 0.3 0 0.3-0.2 0.5c-0.3 0.5-1.2 0.3-1.5-0.2-0.4-0.6-0.2-1.3 0-1.8z"/>
					<path id="&lt;Path&gt;" class="s14" d="m291.2 282.8c0.5-0.4 1.6-0.5 2.1-0.2 0.7 0.4 0.7 1.3 1.6 1.5 0.1 0.1 0.3 0.1 0.3 0.2 0.2 0.1 0.1 0.3 0.1 0.5-0.2 0.7-0.6 1.6-1.3 1.8-0.4 0.1-0.9-0.1-1.3 0.2-0.1 0.1-0.3 0.2-0.4 0.3-0.2 0-0.4-0.1-0.6-0.1-1.5-0.7-2-3.1-0.5-4.2z"/>
					<path id="&lt;Path&gt;" class="s14" d="m323.4 293.9q0-0.3 0.1-0.5c0.3 0.2 0.4 0.7 0.4 1.1 0 0.2 0 0.5-0.2 0.6-0.1 0.1-0.3 0-0.5 0-0.3 0-0.6 0.3-0.9 0.1-0.1-0.1-0.1-0.3 0-0.5 0.1-0.1 0.3-0.2 0.4-0.3q0.5-0.3 1-0.6z"/>
					<path id="&lt;Path&gt;" class="s14" d="m329.4 292.6c0.4-0.3 0.9-0.3 1.3-0.1-0.1 0.3-0.3 0.7-0.6 0.8-0.3 0.1-0.7-0.3-0.5-0.5z"/>
					<path id="&lt;Path&gt;" class="s14" d="m327.6 297.6c0-0.2 0.1-0.5 0.3-0.6 0.2-0.1 0.5-0.1 0.7 0 0.3 0 0.6 0 0.8 0.2 0.1 0.2 0.2 0.6-0.1 0.7-0.2 0.2-0.5 0-0.8 0-0.2 0.1-0.5 0.3-0.7 0.3-0.2-0.1-0.3-0.3-0.3-0.4 0-0.2 0.1-0.3 0.1-0.5z"/>
					<path id="&lt;Path&gt;" class="s14" d="m327.1 299.4c0.1-0.1 0.3-0.1 0.4 0 0.1 0.1 0.1 0.3 0.1 0.4q0 0.2-0.1 0.3c-0.1 0.2-0.3 0.2-0.5 0.1-0.2-0.2-0.2-0.4-0.1-0.6 0.2-0.2 0.4-0.2 0.6-0.1z"/>
					<path id="&lt;Path&gt;" class="s14" d="m347.6 308.4c0.1-0.1 0.3-0.1 0.4 0 0.1 0.2 0.2 0.3 0.2 0.5q0 0.1-0.1 0.2c-0.1 0.2-0.4 0.3-0.6 0.1-0.1-0.1-0.2-0.4 0-0.5 0.1-0.2 0.4-0.2 0.5-0.1z"/>
					<path id="&lt;Path&gt;" class="s14" d="m324.8 298.9c0.2-0.1 0.4 0 0.4 0.2 0 0.2-0.1 0.3-0.3 0.4-0.2 0-0.4 0-0.5-0.1-0.1-0.3 0.3-0.6 0.6-0.5z"/>
					<path id="&lt;Path&gt;" class="s14" d="m173 195.9c0.1-0.1 0.3 0 0.3 0.2 0.1 0.2-0.1 0.3-0.3 0.3-0.1 0.1-0.3 0-0.5 0 0-0.3 0.4-0.7 0.7-0.5z"/>
					<path id="&lt;Path&gt;" class="s14" d="m187.8 187.1c0.3-0.1 0.6 0 0.8 0.2 0.2 0.3 0.1 0.7-0.1 0.8-0.2 0.1-0.3 0-0.5 0q-0.5 0-1-0.1c0.1-0.3 0.4-0.7 0.7-0.9z"/>
					<path id="&lt;Path&gt;" class="s14" d="m182.2 179.2q0-0.9 0-1.8c0.3-0.1 0.5 0.3 0.6 0.6 0 0.3 0.1 0.6 0 0.9-0.1 0.3-0.5 0.5-0.7 0.3z"/>
					<path id="&lt;Path&gt;" class="s14" d="m182.7 170.1c0.3 0 0.6-0.1 0.8 0 0.3 0.1 0.5 0.4 0.5 0.7 0 0.2-0.2 0.3-0.3 0.4-0.4 0.3-0.9 0.3-1.2 0-0.3-0.4-0.1-1 0.3-1z"/>
					<path id="&lt;Path&gt;" class="s14" d="m175.9 183.8c0.2-0.3 0.8-0.1 0.8 0.3 0.1 0.4-0.3 0.7-0.7 0.8-0.3 0-0.6 0-0.8-0.2 0.1-0.4 0.4-0.7 0.8-0.7z"/>
					<path id="&lt;Path&gt;" class="s14" d="m179.2 181.3c0.2-0.2 0.5-0.3 0.7-0.2q0 0.5 0 0.9c-0.4 0.2-0.9-0.1-0.9-0.5z"/>
					<path id="&lt;Path&gt;" class="s14" d="m187.6 170.5c-0.1-1.5 2.7-1.3 3.6-1.8 0.5-0.3 1-0.7 1.5-0.5 0.4 0.3 0.4 0.9 0.2 1.4 0 0.2 0 0.3-0.1 0.4-0.1 0.1-0.2 0.2-0.4 0.2q-0.6 0.2-1.3 0.5c-0.8 0.2-3.5 1.4-3.5-0.2z"/>
					<path id="&lt;Path&gt;" class="s14" d="m183.6 173.3q0-0.2-0.1-0.4c0.3 0.1 0.6 0.1 0.8 0.3 0.2 0.1 0.4 0.4 0.3 0.7-0.1 0.3-0.5 0.4-0.7 0.1q-0.2-0.3-0.3-0.7z"/>
					<path id="&lt;Path&gt;" class="s14" d="m330.9 296.7c0.1-0.2 0.4-0.2 0.6-0.2 0.2 0.1 0.4 0.3 0.4 0.6 0 0.1-0.1 0.3-0.3 0.3q-0.1 0-0.2-0.1-0.3-0.3-0.6-0.6 0 0 0.1-0.1z"/>
					<path id="&lt;Path&gt;" class="s14" d="m335.2 298.1c0.1 0.2 0.5 0.2 0.8 0.1 0.2 0 0.6-0.1 0.8 0.1q0.1 0.1 0.1 0.2c-0.1 0.2-0.3 0.2-0.5 0.2-0.2 0.1-0.3 0.2-0.4 0.3-0.4 0.2-0.8 0.2-1.1-0.1-0.1-0.2-0.1-0.4 0.1-0.5 0.1-0.2 0.4-0.2 0.5-0.2z"/>
					<path id="&lt;Path&gt;" class="s14" d="m334.2 300.8c0.1-0.2 0.3-0.3 0.5-0.2 0.1 0.2 0.1 0.4 0 0.5-0.2 0.1-0.4 0.1-0.5 0q0-0.1 0-0.3z"/>
					<path id="&lt;Path&gt;" class="s14" d="m340.2 305.7c0-0.2 0.3-0.2 0.4-0.1 0.2 0.1 0.2 0.3 0 0.5-0.1 0.1-0.3 0.1-0.5 0q0.1-0.2 0.1-0.4z"/>
					<path id="&lt;Path&gt;" class="s14" d="m322.6 298.6c0.2-0.2 0-0.5-0.2-0.5-0.2-0.1-0.4-0.1-0.6-0.1-0.3 0-0.5-0.2-0.6-0.4 0-0.1-0.1-0.2 0-0.4q0.1-0.1 0.2-0.1c0.4-0.2 0.8-0.3 1.3-0.3 0.4 0.1 0.8 0.4 0.9 0.8 0.1 0.2 0 0.6-0.2 0.8-0.2 0.2-0.6 0.3-0.9 0.2z"/>
					<path id="&lt;Path&gt;" class="s14" d="m169.9 208.2c0.2-0.1 0-0.4-0.2-0.5-0.2 0-0.4 0-0.6 0-0.2-0.1-0.4-0.2-0.6-0.4 0-0.1 0-0.3 0-0.4q0.1-0.1 0.2-0.1c0.4-0.2 0.8-0.4 1.3-0.3 0.4 0 0.8 0.3 0.9 0.7 0.1 0.3 0 0.6-0.2 0.8-0.2 0.2-0.6 0.3-0.8 0.2z"/>
					<path id="&lt;Path&gt;" class="s14" d="m187.6 192.2q0.3 0.4 0.7 0.7c0 0.1 0.1 0.1 0.1 0.2 0 0.1-0.2 0.2-0.3 0.2-0.2 0-0.5-0.1-0.7-0.3-0.1-0.2-0.1-0.5 0.1-0.7z"/>
					<path id="&lt;Path&gt;" class="s14" d="m175.8 199.1q0.8 0.4 1.5 0.9c0.2 0.2 0.4 0.5 0.4 0.7 0 0.6-0.7 0.8-1.2 0.8-0.4 0-0.8 0-1.1-0.2-0.4-0.3-0.5-0.8-0.8-1.1-0.2-0.1-0.6-0.3-0.5-0.6 0-0.1 0.1-0.1 0.2-0.2 0.7-0.3 1.4-0.3 2.1-0.1z"/>
					<path id="&lt;Path&gt;" class="s14" d="m165.1 181.2q0.5 0.8 0.6 1.7c0 0.2 0 0.3-0.1 0.4-0.1 0.1-0.2 0.1-0.4 0.1q-0.4 0-0.9 0c-0.3 0-0.8-0.1-0.9-0.5-0.1-0.2 0.1-0.5 0.3-0.7 0.2-0.3 0.7-0.7 1-0.4z"/>
					<path id="&lt;Path&gt;" class="s14" d="m175.8 173.9c-2.4-2.9-5.5 0.2-4 3.1 1.5 3 6.2-0.6 4-3.1z"/>
					<path id="&lt;Path&gt;" class="s14" d="m326.3 289.5c0.5-0.3 1.1 0.2 1.1 0.7-0.4 0.1-0.8 0.2-1.2 0.1-0.4-0.1-0.7-0.6-0.5-1q0.3-0.1 0.7-0.2z"/>
					<path id="&lt;Path&gt;" class="s14" d="m239.7 158.8q-0.4 0-0.8 0c0-0.9 0.6-1.7 1.4-2 0.8-0.2 1.7-0.1 2.4 0.4 0.6 0.3 1.1 1.1 0.7 1.6-0.2 0.3-0.6 0.4-1 0.4-0.3 0-0.7-0.2-1-0.3q-1-0.3-2.1-0.2 0-0.3 0-0.6z"/>
					<path id="&lt;Path&gt;" class="s14" d="m339.5 295.9q-0.3-0.1-0.5-0.3c0.6-0.4 2-0.5 3.2-0.4 0.4 0 0.7 0.1 1 0.2 0.3 0.1 0.5 0.3 0.3 0.4-0.2 0.2-0.7 0.2-1.1 0.2q-1.1 0-2.2 0c-0.3 0-0.7 0-0.9-0.1-0.3 0-0.4-0.3-0.2-0.3z"/>
					<path id="&lt;Path&gt;" class="s14" d="m338.7 299.6c0.1-0.1 0.2-0.1 0.3 0 0.1 0.1 0.2 0.2 0.2 0.3q0 0.2 0 0.3c-0.1 0.2-0.3 0.3-0.5 0.3-0.2 0-0.4-0.2-0.4-0.4q-0.1-0.1 0-0.3c0 0 0.1-0.1 0.2-0.1z"/>
					<path id="&lt;Path&gt;" class="s14" d="m376.1 297c0-1.1 1.7-1.6 2.5-0.8 0.8 0.8 0.6 2.2-0.3 3-0.8 0.7-2.1 0.8-3.2 0.5-0.2-1.1 0.1-2.3 0.9-3.1z"/>
					<path id="&lt;Path&gt;" class="s14" d="m376.8 304.2c0.4-0.2 0.9-0.3 1.3-0.1-0.1 0.3-0.3 0.7-0.6 0.8-0.3 0.1-0.7-0.2-0.5-0.5z"/>
					<path id="&lt;Path&gt;" class="s14" d="m395 320.1c0.1-0.2 0.3-0.1 0.4 0 0.1 0.1 0.1 0.2 0.1 0.4q0 0.1 0 0.3c-0.2 0.1-0.4 0.2-0.6 0-0.2-0.1-0.2-0.4-0.1-0.5 0.2-0.2 0.4-0.2 0.6-0.1z"/>
					<path id="&lt;Path&gt;" class="s14" d="m378.2 308.3c0.2-0.2 0.4-0.2 0.7-0.1 0.2 0 0.3 0.3 0.3 0.5 0 0.1-0.1 0.3-0.2 0.3q-0.1 0-0.2-0.1-0.3-0.3-0.7-0.5 0.1-0.1 0.1-0.1z"/>
					<path id="&lt;Path&gt;" class="s14" d="m382.5 309.7c0.2 0.3 0.6 0.2 0.8 0.2 0.3-0.1 0.6-0.2 0.9 0q0.1 0.1 0 0.2c0 0.2-0.3 0.2-0.5 0.3-0.1 0-0.2 0.1-0.4 0.2-0.3 0.2-0.7 0.2-1 0-0.1-0.2-0.1-0.5 0.1-0.6 0.1-0.2 0.3-0.2 0.5-0.2z"/>
					<path id="&lt;Path&gt;" class="s14" d="m381.6 312.4c0-0.2 0.3-0.3 0.4-0.1 0.2 0.1 0.2 0.3 0 0.4-0.1 0.2-0.3 0.2-0.5 0.1q0.1-0.2 0.1-0.4z"/>
					<path id="&lt;Path&gt;" class="s14" d="m387.6 317.3c0-0.2 0.3-0.2 0.4-0.1 0.1 0.1 0.1 0.4 0 0.5-0.1 0.1-0.4 0.1-0.5 0q0-0.2 0.1-0.3z"/>
					<path id="&lt;Path&gt;" class="s14" d="m386.9 307.5q-0.3-0.1-0.6-0.2c0.6-0.5 2.1-0.5 3.3-0.5 0.3 0.1 0.7 0.1 1 0.2 0.3 0.1 0.5 0.3 0.3 0.4-0.2 0.2-0.7 0.2-1.1 0.2q-1.1 0-2.2 0.1c-0.4 0-0.7 0-1-0.1-0.2-0.1-0.3-0.3-0.1-0.4z"/>
					<path id="&lt;Path&gt;" class="s14" d="m386.1 311.2c0-0.1 0.2-0.1 0.3 0 0.1 0.1 0.1 0.2 0.2 0.3q0 0.2-0.1 0.3c0 0.2-0.2 0.3-0.4 0.3-0.2 0-0.4-0.2-0.5-0.3q0-0.2 0-0.3c0.1-0.1 0.2-0.2 0.3-0.1z"/>
					<path id="&lt;Path&gt;" class="s14" d="m573.5 427.1c0-1.1 1.7-1.7 2.5-0.9 0.8 0.9 0.6 2.3-0.3 3.1-0.9 0.7-2.1 0.8-3.2 0.5-0.3-1.1 0.1-2.4 0.9-3.2z"/>
					<path id="&lt;Path&gt;" class="s14" d="m574.2 434.3c0.3-0.3 0.9-0.3 1.3-0.1-0.2 0.3-0.3 0.7-0.6 0.8-0.3 0.1-0.8-0.3-0.6-0.5z"/>
					<path id="&lt;Path&gt;" class="s14" d="m592.3 450.1c0.1-0.1 0.3-0.1 0.5 0.1 0.1 0.1 0.1 0.2 0.1 0.4q0 0.1-0.1 0.2c-0.1 0.2-0.4 0.3-0.5 0.1-0.2-0.1-0.2-0.4-0.1-0.5 0.1-0.2 0.4-0.2 0.6-0.1z"/>
					<path id="&lt;Path&gt;" class="s14" d="m575.6 438.4c0.1-0.2 0.4-0.2 0.6-0.2 0.2 0.1 0.4 0.3 0.4 0.6 0 0.1-0.1 0.3-0.3 0.3q0 0-0.1-0.1-0.4-0.3-0.7-0.5 0.1-0.1 0.1-0.1z"/>
					<path id="&lt;Path&gt;" class="s14" d="m579.9 439.8c0.2 0.2 0.5 0.2 0.8 0.1 0.3 0 0.6-0.1 0.8 0.1q0.1 0.1 0.1 0.2c0 0.2-0.3 0.2-0.5 0.3-0.1 0-0.3 0.1-0.4 0.2-0.3 0.2-0.8 0.2-1.1-0.1-0.1-0.1 0-0.4 0.1-0.5 0.2-0.2 0.4-0.2 0.6-0.2z"/>
					<path id="&lt;Path&gt;" class="s14" d="m578.9 442.5c0.1-0.2 0.4-0.3 0.5-0.2 0.1 0.2 0.1 0.4 0 0.5-0.1 0.2-0.4 0.1-0.5 0q0-0.1 0.1-0.3z"/>
					<path id="&lt;Path&gt;" class="s14" d="m584.9 447.4c0.1-0.2 0.3-0.2 0.5-0.1 0.1 0.1 0.1 0.3 0 0.5-0.2 0.1-0.4 0.1-0.5 0q0-0.2 0-0.4z"/>
					<path id="&lt;Path&gt;" class="s14" d="m584.2 437.6q-0.2-0.1-0.5-0.3c0.6-0.4 2.1-0.5 3.3-0.4 0.3 0.1 0.7 0.1 1 0.2 0.3 0.1 0.4 0.3 0.3 0.4-0.2 0.2-0.7 0.2-1.1 0.2q-1.1 0-2.3 0c-0.3 0-0.6 0-0.9-0.1-0.3 0-0.4-0.3-0.1-0.3z"/>
					<path id="&lt;Path&gt;" class="s14" d="m583.4 441.3c0.1-0.1 0.3-0.1 0.4 0 0.1 0.1 0.1 0.2 0.1 0.3q0.1 0.2 0 0.3c0 0.2-0.3 0.3-0.5 0.3-0.2 0-0.3-0.2-0.4-0.4q-0.1-0.1 0-0.2c0.1-0.1 0.2-0.2 0.3-0.2z"/>
					<path id="&lt;Path&gt;" class="s14" d="m322.6 310.3c0.2 0 0.3-0.1 0.5-0.1 0.1 0.1 0.3 0.2 0.3 0.3 0.1 0.1 0 0.3-0.1 0.4-0.4 0.6-1.5 0.8-2.1 0.3-0.1-0.1-0.2-0.3-0.2-0.4q0.8-0.3 1.6-0.5z"/>
					<path id="&lt;Path&gt;" class="s14" d="m325.3 301.9q0.3-0.1 0.7-0.1 0.1 0 0.2 0c0.1 0.1 0.1 0.4-0.1 0.4-0.2 0.1-0.3 0.1-0.5 0q0-0.1 0-0.3z"/>
					<path id="&lt;Path&gt;" class="s14" d="m482 395c-0.2 0.2-0.6 0-0.6-0.2 0.6-0.6 1.7-0.5 2.3 0 0.6 0.5 1 1.4 1 2.2 0.2 1.5-0.4 3.1-1.6 4.1-1.1 0.9-2.9 1.2-4.2 0.4-0.5-0.3-1-0.9-1-1.5 0-0.3 0.1-0.6 0.2-0.9 0.8-1.8 2-3.5 3.6-4.7z"/>
					<path id="&lt;Path&gt;" class="s14" d="m501.8 383.6c0-1.2 1.7-1.7 2.5-0.9 0.8 0.8 0.6 2.3-0.3 3-0.8 0.8-2.1 0.8-3.2 0.5-0.3-1.1 0.1-2.3 0.9-3.1z"/>
					<path id="&lt;Path&gt;" class="s14" d="m498.7 393.4q0 0.1-0.1 0.2c0.6-0.3 1.4 0.1 1.5 0.7 0 0.2-0.1 0.3-0.2 0.3-0.1 0-0.1 0-0.2-0.1-0.3-0.2-0.7 0.3-1.1 0.3q-0.1-0.1-0.1-0.1-0.1-0.1-0.1-0.1 0.1-0.6 0.2-1.2z"/>
					<path id="&lt;Path&gt;" class="s14" d="m493.3 397.5q-0.1 0.1-0.3 0.1c0.3 0.1 0.7 0.3 0.7 0.6 0 0.3-0.1 0.5-0.3 0.6-0.2 0.1-0.5 0.1-0.7 0.2-0.1-0.6 0.1-1.1 0.4-1.5z"/>
					<path id="&lt;Path&gt;" class="s14" d="m496.6 399.1c0.1 0.3 0.2 0.6 0 0.8-0.1 0.1-0.4 0.1-0.4 0.2q-0.1 0.1-0.1 0.2 0.1 1 0.2 1.9-0.4-0.4-0.9-0.7c-0.1-0.1-0.2-0.2-0.3-0.3 0-0.2 0-0.3 0-0.5 0.3-0.7 0.7-3.3 1.5-1.6z"/>
					<path id="&lt;Path&gt;" class="s14" d="m464.2 381c0.5-0.4 1.6-0.5 2.2-0.2 0.7 0.3 0.7 1.3 1.6 1.5 0.1 0 0.2 0.1 0.3 0.2 0.1 0.1 0.1 0.3 0 0.5-0.2 0.7-0.5 1.5-1.2 1.7-0.4 0.1-0.9 0-1.3 0.2-0.2 0.1-0.3 0.3-0.5 0.3-0.2 0.1-0.3 0-0.5-0.1-1.6-0.6-2-3-0.6-4.1z"/>
					<path id="&lt;Path&gt;" class="s14" d="m496.5 392q0-0.2 0-0.4c0.4 0.2 0.5 0.7 0.5 1.1 0 0.2 0 0.5-0.2 0.6-0.2 0-0.3 0-0.5 0-0.3 0-0.7 0.3-0.9 0.1-0.1-0.1-0.1-0.4 0-0.5 0.1-0.2 0.2-0.3 0.4-0.3q0.5-0.3 1-0.6z"/>
					<path id="&lt;Path&gt;" class="s14" d="m502.5 390.8c0.4-0.3 0.9-0.4 1.3-0.1-0.1 0.3-0.3 0.6-0.6 0.7-0.3 0.2-0.7-0.2-0.6-0.5z"/>
					<path id="&lt;Path&gt;" class="s14" d="m500.7 395.8c-0.1-0.2 0.1-0.5 0.3-0.6 0.2-0.1 0.4-0.1 0.7-0.1 0.2 0.1 0.5 0.1 0.7 0.3 0.2 0.2 0.2 0.6 0 0.7-0.2 0.1-0.5-0.1-0.8 0-0.3 0-0.5 0.3-0.7 0.2-0.2 0-0.3-0.2-0.3-0.4 0-0.1 0-0.3 0.1-0.4z"/>
					<path id="&lt;Path&gt;" class="s14" d="m500.1 397.6c0.1-0.2 0.3-0.1 0.4 0 0.2 0.1 0.2 0.2 0.2 0.4q0 0.1-0.1 0.3c-0.1 0.1-0.4 0.2-0.6 0-0.1-0.1-0.1-0.4 0-0.5 0.1-0.2 0.4-0.2 0.6-0.1z"/>
					<path id="&lt;Path&gt;" class="s14" d="m520.7 406.6c0.1-0.1 0.3-0.1 0.4 0 0.1 0.1 0.1 0.3 0.1 0.4q0 0.2-0.1 0.3c-0.1 0.2-0.3 0.2-0.5 0.1-0.2-0.1-0.2-0.4-0.1-0.6 0.2-0.1 0.4-0.2 0.6-0.1z"/>
					<path id="&lt;Path&gt;" class="s14" d="m497.9 397c0.1 0 0.4 0.1 0.4 0.3 0 0.1-0.2 0.3-0.3 0.3-0.2 0.1-0.4 0-0.5 0-0.1-0.4 0.3-0.7 0.6-0.5z"/>
					<path id="&lt;Path&gt;" class="s14" d="m503.9 394.8c0.2-0.1 0.4-0.2 0.6-0.1 0.3 0.1 0.4 0.3 0.4 0.5 0 0.2-0.1 0.4-0.2 0.4q-0.1-0.1-0.2-0.1-0.3-0.3-0.7-0.6 0.1 0 0.1-0.1z"/>
					<path id="&lt;Path&gt;" class="s14" d="m508.2 396.3c0.2 0.2 0.5 0.2 0.8 0.1 0.3-0.1 0.6-0.2 0.8 0q0.1 0.1 0.1 0.2c0 0.2-0.3 0.2-0.5 0.3-0.1 0.1-0.2 0.2-0.4 0.3-0.3 0.2-0.8 0.1-1.1-0.1 0-0.2 0-0.4 0.1-0.6 0.2-0.1 0.4-0.2 0.6-0.1z"/>
					<path id="&lt;Path&gt;" class="s14" d="m507.3 398.9c0-0.1 0.3-0.2 0.4-0.1 0.2 0.1 0.1 0.4 0 0.5-0.1 0.1-0.3 0.1-0.5 0q0-0.2 0.1-0.3z"/>
					<path id="&lt;Path&gt;" class="s14" d="m513.3 403.9c0-0.2 0.3-0.3 0.4-0.2 0.1 0.2 0.1 0.4 0 0.5-0.1 0.1-0.4 0.1-0.5 0q0-0.1 0.1-0.3z"/>
					<path id="&lt;Path&gt;" class="s14" d="m495.7 396.7c0.1-0.1 0-0.4-0.2-0.5-0.2 0-0.5 0-0.7 0-0.2-0.1-0.4-0.2-0.5-0.4-0.1-0.1-0.1-0.3 0-0.4q0.1-0.1 0.2-0.1c0.4-0.2 0.8-0.4 1.2-0.3 0.4 0 0.9 0.3 1 0.7 0 0.3 0 0.6-0.3 0.8-0.2 0.2-0.5 0.3-0.8 0.2z"/>
					<path id="&lt;Path&gt;" class="s14" d="m499.3 387.6c0.5-0.2 1.2 0.2 1.2 0.8-0.4 0.1-0.8 0.2-1.2 0.1-0.4-0.2-0.8-0.6-0.6-1q0.4-0.1 0.7-0.3z"/>
					<path id="&lt;Path&gt;" class="s14" d="m512.6 394q-0.3-0.1-0.6-0.2c0.6-0.5 2.1-0.5 3.3-0.4 0.3 0 0.7 0 1 0.1 0.3 0.1 0.5 0.3 0.3 0.5-0.2 0.2-0.7 0.2-1.1 0.2q-1.1 0-2.2 0c-0.4 0-0.7 0-1-0.1-0.3-0.1-0.4-0.3-0.1-0.4z"/>
					<path id="&lt;Path&gt;" class="s14" d="m511.8 397.8c0-0.1 0.2-0.1 0.3 0 0.1 0 0.1 0.2 0.1 0.3q0.1 0.1 0 0.3c0 0.2-0.2 0.3-0.4 0.3-0.2-0.1-0.4-0.2-0.5-0.4q0-0.2 0-0.3c0.1-0.1 0.2-0.1 0.3-0.1z"/>
					<path id="&lt;Path&gt;" class="s14" d="m495.7 408.5c0.1-0.1 0.3-0.1 0.4-0.1 0.2 0 0.4 0.1 0.4 0.3 0 0.1 0 0.2-0.1 0.3-0.4 0.7-1.5 0.9-2.1 0.3-0.1-0.1-0.2-0.2-0.2-0.4q0.7-0.3 1.5-0.4z"/>
					<path id="&lt;Path&gt;" class="s14" d="m498.4 400q0.3 0 0.6 0 0.1-0.1 0.2 0c0.2 0.1 0.1 0.3 0 0.4-0.2 0.1-0.4 0-0.6 0q0.1-0.2 0.1-0.4z"/>
					<path id="&lt;Path&gt;" class="s14" d="m182.9 191.6c0.4-0.1 0.9 0.2 1 0.6 0.1 0.4-0.2 0.9-0.6 0.9q-0.2 0.1-0.4 0c-0.3-0.1-0.4-0.5-0.3-0.7 0-0.3 0.2-0.6 0.3-0.8z"/>
					<path id="&lt;Path&gt;" class="s14" d="m168.8 194.8c-0.1-0.4 0.4-0.8 0.8-0.6q0.1 0.3 0.1 0.7c-0.2 0.1-0.5 0-0.7-0.1z"/>
					<path id="&lt;Path&gt;" class="s14" d="m169.5 187.8c0-0.2 0.3-0.4 0.5-0.4 0.1 0.3 0 0.6-0.2 0.7-0.3 0.1-0.5-0.3-0.3-0.4z"/>
					<path id="&lt;Path&gt;" class="s14" d="m199 172.7c0.2 0.1 0.4 0.4 0.3 0.7q-0.2 0-0.4 0 0-0.3 0-0.6z"/>
					<path id="&lt;Path&gt;" class="s14" d="m156.6 147.9c0.3 0.1 0.4 0.5 0.3 0.7q-0.2 0.1-0.4 0 0-0.3 0-0.6z"/>
					<path id="&lt;Path&gt;" class="s14" d="m174.7 165.5c-0.2-0.6 0-1.3 0.5-1.8q0-0.1 0.2-0.2c0.1 0 0.2 0.1 0.3 0.2 0.5 0.5 1.1 1.3 0.8 2-0.3 0.6-1.3 0.6-1.6 0.1q0.1-0.3 0.2-0.6z"/>
					<path id="&lt;Path&gt;" class="s14" d="m267.5 311.4c-0.2-0.6 0-1.4 0.5-1.9q0.1-0.1 0.2-0.1c0.1 0 0.2 0.1 0.3 0.2 0.5 0.5 1.1 1.3 0.8 1.9-0.3 0.6-1.3 0.7-1.6 0.2q0.1-0.3 0.2-0.6z"/>
					<path id="&lt;Path&gt;" class="s14" d="m71.7 434.4c-0.2 0.2-0.6 0-0.6-0.2 0.6-0.6 1.7-0.5 2.3 0 0.7 0.5 1 1.4 1 2.2 0.2 1.5-0.4 3.1-1.6 4.1-1.1 0.9-2.9 1.1-4.2 0.4-0.5-0.3-1-0.9-1-1.5 0-0.3 0.1-0.6 0.2-0.9 0.8-1.8 2-3.5 3.6-4.7z"/>
					<path id="&lt;Path&gt;" class="s14" d="m91.5 422.9c0-1.1 1.7-1.6 2.5-0.8 0.8 0.8 0.6 2.3-0.3 3-0.8 0.8-2.1 0.8-3.2 0.5-0.3-1.1 0.1-2.3 0.9-3.1z"/>
					<path id="&lt;Path&gt;" class="s14" d="m88.4 432.8q0 0.1-0.1 0.2c0.6-0.3 1.4 0.1 1.5 0.7 0 0.1-0.1 0.3-0.2 0.3-0.1 0-0.1 0-0.2-0.1-0.3-0.2-0.7 0.3-1.1 0.2q-0.1 0-0.1 0-0.1-0.1-0.1-0.2 0.1-0.5 0.3-1.1z"/>
					<path id="&lt;Path&gt;" class="s14" d="m83 436.9q-0.1 0.1-0.3 0.1c0.3 0.1 0.7 0.3 0.7 0.6 0 0.3-0.1 0.5-0.3 0.6-0.2 0.1-0.5 0.1-0.7 0.2-0.1-0.6 0.1-1.1 0.4-1.5z"/>
					<path id="&lt;Path&gt;" class="s14" d="m86.3 438.5c0.1 0.3 0.2 0.6 0 0.7-0.1 0.2-0.4 0.2-0.4 0.3q-0.1 0.1-0.1 0.2 0.1 1 0.2 1.9-0.4-0.4-0.9-0.7c-0.1-0.1-0.2-0.2-0.3-0.3 0-0.2 0-0.3 0.1-0.5 0.2-0.7 0.6-3.3 1.4-1.6z"/>
					<path id="&lt;Path&gt;" class="s14" d="m53.9 420.4c0.5-0.4 1.6-0.5 2.2-0.2 0.7 0.3 0.7 1.3 1.6 1.5 0.1 0 0.2 0.1 0.3 0.1 0.1 0.2 0.1 0.4 0 0.6-0.2 0.7-0.5 1.5-1.2 1.7-0.4 0.1-0.9 0-1.3 0.2-0.2 0.1-0.3 0.3-0.5 0.3-0.2 0.1-0.3 0-0.5-0.1-1.6-0.6-2-3-0.6-4.1z"/>
					<path id="&lt;Path&gt;" class="s14" d="m86.2 431.4q0-0.2 0.1-0.4c0.3 0.2 0.4 0.6 0.4 1.1 0 0.2 0 0.5-0.2 0.6-0.2 0-0.3 0-0.5 0-0.3 0-0.7 0.3-0.9 0.1-0.1-0.1-0.1-0.4 0-0.5 0.1-0.2 0.2-0.3 0.4-0.4q0.5-0.3 1-0.5z"/>
					<path id="&lt;Path&gt;" class="s14" d="m92.2 430.2c0.4-0.3 0.9-0.4 1.3-0.1-0.1 0.3-0.3 0.6-0.6 0.7-0.3 0.1-0.7-0.2-0.5-0.5z"/>
					<path id="&lt;Path&gt;" class="s14" d="m90.4 435.2c-0.1-0.2 0.1-0.5 0.3-0.6 0.2-0.1 0.5-0.1 0.7-0.1 0.3 0.1 0.5 0.1 0.7 0.3 0.2 0.2 0.2 0.5 0 0.7-0.2 0.1-0.5-0.1-0.8 0-0.3 0-0.5 0.3-0.7 0.2-0.2 0-0.3-0.2-0.3-0.4 0-0.1 0.1-0.3 0.1-0.4z"/>
					<path id="&lt;Path&gt;" class="s14" d="m89.8 436.9c0.1-0.1 0.3-0.1 0.4 0.1 0.2 0.1 0.2 0.2 0.2 0.4q0 0.1-0.1 0.3c-0.1 0.1-0.4 0.2-0.5 0-0.2-0.1-0.2-0.4-0.1-0.5 0.1-0.2 0.4-0.2 0.6-0.1z"/>
					<path id="&lt;Path&gt;" class="s14" d="m110.4 446c0.1-0.1 0.3-0.1 0.4 0 0.1 0.1 0.1 0.3 0.1 0.4q0 0.2-0.1 0.3c-0.1 0.2-0.3 0.2-0.5 0.1-0.2-0.2-0.2-0.4-0.1-0.6 0.2-0.2 0.4-0.2 0.6-0.1z"/>
					<path id="&lt;Path&gt;" class="s14" d="m87.6 436.4c0.2 0 0.4 0.1 0.4 0.3 0 0.1-0.2 0.3-0.3 0.3-0.2 0.1-0.4 0-0.5 0-0.1-0.4 0.3-0.7 0.6-0.5z"/>
					<path id="&lt;Path&gt;" class="s14" d="m93.6 434.2c0.2-0.1 0.4-0.2 0.7-0.1 0.2 0.1 0.3 0.3 0.3 0.5 0 0.2-0.1 0.4-0.2 0.4q-0.1-0.1-0.2-0.1-0.3-0.3-0.7-0.6 0.1 0 0.1-0.1z"/>
					<path id="&lt;Path&gt;" class="s14" d="m97.9 435.7c0.2 0.2 0.6 0.2 0.8 0.1 0.3-0.1 0.6-0.2 0.9 0q0 0.1 0 0.2c0 0.2-0.3 0.2-0.5 0.3-0.1 0.1-0.2 0.2-0.4 0.3-0.3 0.2-0.7 0.1-1-0.1-0.1-0.2-0.1-0.4 0-0.6 0.2-0.1 0.4-0.2 0.6-0.1z"/>
					<path id="&lt;Path&gt;" class="s14" d="m97 438.3c0-0.1 0.3-0.2 0.4-0.1 0.2 0.1 0.2 0.4 0 0.5-0.1 0.1-0.3 0.1-0.5 0q0.1-0.2 0.1-0.3z"/>
					<path id="&lt;Path&gt;" class="s14" d="m103 443.3c0-0.2 0.3-0.3 0.4-0.2 0.1 0.1 0.1 0.4 0 0.5-0.1 0.1-0.4 0.1-0.5 0q0-0.1 0.1-0.3z"/>
					<path id="&lt;Path&gt;" class="s14" d="m85.4 436.1c0.1-0.1 0-0.4-0.2-0.5-0.2 0-0.5 0-0.7 0-0.2-0.1-0.4-0.2-0.5-0.4-0.1-0.1-0.1-0.3 0-0.4q0.1-0.1 0.2-0.1c0.4-0.2 0.8-0.4 1.2-0.3 0.4 0 0.9 0.3 1 0.7 0 0.3 0 0.6-0.3 0.8-0.2 0.2-0.5 0.3-0.8 0.2z"/>
					<path id="&lt;Path&gt;" class="s14" d="m89 427c0.5-0.2 1.2 0.2 1.2 0.8-0.4 0.1-0.8 0.2-1.2 0.1-0.4-0.2-0.8-0.6-0.6-1q0.4-0.1 0.7-0.3z"/>
					<path id="&lt;Path&gt;" class="s14" d="m102.3 433.4q-0.3-0.1-0.6-0.2c0.6-0.5 2.1-0.5 3.3-0.4 0.3 0 0.7 0 1 0.1 0.3 0.1 0.5 0.3 0.3 0.5-0.2 0.1-0.7 0.2-1.1 0.2q-1.1 0-2.2 0c-0.4 0-0.7 0-1-0.1-0.3-0.1-0.4-0.3-0.1-0.4z"/>
					<path id="&lt;Path&gt;" class="s14" d="m101.5 437.2c0-0.1 0.2-0.1 0.3-0.1 0.1 0.1 0.1 0.3 0.2 0.4q0 0.1-0.1 0.3c0 0.2-0.2 0.3-0.4 0.3-0.2-0.1-0.4-0.2-0.5-0.4q0-0.2 0-0.3c0.1-0.1 0.2-0.1 0.3-0.1z"/>
					<path id="&lt;Path&gt;" class="s14" d="m138.9 434.6c0-1.2 1.7-1.7 2.5-0.9 0.8 0.8 0.6 2.3-0.3 3-0.9 0.8-2.1 0.9-3.2 0.6-0.3-1.2 0.1-2.4 0.9-3.2z"/>
					<path id="&lt;Path&gt;" class="s14" d="m139.6 441.8c0.3-0.3 0.9-0.3 1.3-0.1-0.2 0.3-0.3 0.6-0.6 0.8-0.3 0.1-0.8-0.3-0.6-0.6z"/>
					<path id="&lt;Path&gt;" class="s14" d="m157.7 457.6c0.1-0.1 0.3-0.1 0.5 0 0.1 0.1 0.1 0.3 0.1 0.5q0 0.1-0.1 0.2c-0.1 0.2-0.4 0.2-0.5 0.1-0.2-0.1-0.2-0.4-0.1-0.6 0.1-0.1 0.4-0.2 0.6-0.1z"/>
					<path id="&lt;Path&gt;" class="s14" d="m141 445.9c0.1-0.2 0.4-0.3 0.6-0.2 0.2 0.1 0.4 0.3 0.4 0.5 0 0.2-0.1 0.4-0.3 0.4q0 0-0.1-0.1-0.4-0.3-0.7-0.6 0.1 0 0.1-0.1z"/>
					<path id="&lt;Path&gt;" class="s14" d="m145.3 447.3c0.2 0.2 0.5 0.2 0.8 0.1 0.3-0.1 0.6-0.1 0.8 0.1q0.1 0 0.1 0.2c0 0.2-0.3 0.2-0.5 0.2-0.1 0.1-0.3 0.2-0.4 0.3-0.3 0.2-0.8 0.2-1.1-0.1-0.1-0.2 0-0.4 0.1-0.6 0.2-0.1 0.4-0.2 0.6-0.1z"/>
					<path id="&lt;Path&gt;" class="s14" d="m144.4 449.9c0-0.1 0.3-0.2 0.4-0.1 0.1 0.1 0.1 0.4 0 0.5-0.1 0.1-0.4 0.1-0.5 0q0-0.1 0.1-0.3z"/>
					<path id="&lt;Path&gt;" class="s14" d="m150.3 454.9c0.1-0.2 0.3-0.3 0.5-0.1 0.1 0.1 0.1 0.3 0 0.4-0.2 0.2-0.4 0.2-0.5 0q0-0.1 0-0.3z"/>
					<path id="&lt;Path&gt;" class="s14" d="m149.7 445.1q-0.3-0.2-0.6-0.3c0.6-0.5 2.1-0.5 3.3-0.4 0.3 0 0.7 0.1 1 0.2 0.3 0.1 0.4 0.3 0.3 0.4-0.2 0.2-0.7 0.2-1.1 0.2q-1.1 0-2.3 0c-0.3 0-0.6 0-0.9-0.1-0.3-0.1-0.4-0.3-0.1-0.4z"/>
					<path id="&lt;Path&gt;" class="s14" d="m148.8 448.8c0.1-0.1 0.3-0.1 0.4 0 0.1 0 0.1 0.2 0.1 0.3q0.1 0.2 0 0.3c0 0.2-0.3 0.3-0.5 0.3-0.2 0-0.3-0.2-0.4-0.4q0-0.1 0-0.3c0.1-0.1 0.2-0.1 0.3-0.1z"/>
					<path id="&lt;Path&gt;" class="s14" d="m85.4 447.9c0.1-0.1 0.3-0.1 0.5-0.1 0.1 0 0.3 0.1 0.3 0.3 0 0.1 0 0.2-0.1 0.3-0.4 0.7-1.5 0.9-2.1 0.3-0.1-0.1-0.2-0.2-0.2-0.4q0.7-0.3 1.6-0.4z"/>
					<path id="&lt;Path&gt;" class="s14" d="m88.1 439.4q0.3 0 0.6 0 0.1-0.1 0.2 0c0.2 0 0.1 0.3 0 0.4-0.2 0.1-0.4 0-0.5 0q0-0.2 0-0.4z"/>
					<path id="&lt;Path&gt;" class="s14" d="m30.3 449c-0.2-0.7 0-1.4 0.5-1.9q0-0.1 0.2-0.1c0.1 0 0.2 0.1 0.3 0.1 0.5 0.6 1.1 1.3 0.8 2-0.3 0.6-1.3 0.7-1.6 0.1q0.1-0.3 0.2-0.6z"/>
					<path id="&lt;Path&gt;" class="s14" d="m108.4 271.2c-0.2 0-0.3-0.4-0.1-0.6 0.8 0.1 1.4 1 1.3 1.9 0 0.8-0.6 1.5-1.2 2.1-1.1 1-2.8 1.5-4.2 1.1-1.5-0.4-2.7-1.8-2.8-3.3-0.1-0.6 0.1-1.3 0.6-1.6 0.2-0.2 0.6-0.3 0.9-0.4 1.9-0.4 4-0.3 5.9 0.1z"/>
					<path id="&lt;Path&gt;" class="s14" d="m129.3 280.6c0.9-0.6 2.3 0.5 2.1 1.6-0.1 1.2-1.5 1.8-2.6 1.5-1.1-0.2-1.9-1.2-2.3-2.3 0.8-0.8 2-1.3 3.1-1.1z"/>
					<path id="&lt;Path&gt;" class="s14" d="m119.5 283.9q-0.1 0-0.2 0c0.5 0.3 0.7 1.2 0.2 1.6-0.1 0.1-0.2 0.1-0.3 0.1-0.1-0.1 0-0.2 0-0.3-0.1-0.4-0.7-0.4-0.9-0.7q0-0.1 0-0.2 0 0 0.1-0.1 0.5-0.3 1-0.5z"/>
					<path id="&lt;Path&gt;" class="s14" d="m113 281.8q-0.1 0-0.3-0.1c0.1 0.3 0.2 0.7-0.1 0.9-0.1 0.2-0.4 0.2-0.6 0.1-0.2-0.1-0.4-0.3-0.6-0.5 0.4-0.4 1-0.6 1.5-0.5z"/>
					<path id="&lt;Path&gt;" class="s14" d="m113.6 285.5c-0.1 0.2-0.3 0.5-0.6 0.4-0.2-0.1-0.3-0.2-0.5-0.2q-0.1 0-0.1 0.1-0.8 0.6-1.5 1.2 0.1-0.5 0.1-1.1c0-0.2 0-0.3 0.1-0.4 0-0.2 0.2-0.2 0.3-0.3 0.8-0.2 3.1-1.4 2.2 0.3z"/>
					<path id="&lt;Path&gt;" class="s14" d="m109.6 248.6c0.5 0.2 1.3 1 1.4 1.6 0.1 0.8-0.7 1.4-0.4 2.2 0.1 0.1 0.1 0.2 0.1 0.4 0 0.1-0.2 0.2-0.4 0.3-0.7 0.2-1.6 0.5-2.1 0-0.4-0.3-0.6-0.8-1-0.9-0.1-0.1-0.3-0.1-0.5-0.3-0.1-0.1-0.2-0.3-0.2-0.5-0.4-1.6 1.3-3.4 3.1-2.8z"/>
					<path id="&lt;Path&gt;" class="s14" d="m119.3 281.3q0.2-0.2 0.4-0.3c0 0.5-0.3 0.8-0.6 1-0.2 0.2-0.4 0.3-0.6 0.2-0.2-0.1-0.2-0.2-0.3-0.4-0.2-0.2-0.7-0.3-0.6-0.6 0-0.2 0.2-0.3 0.3-0.4 0.2 0 0.4 0.1 0.6 0.2q0.5 0.2 1 0.5z"/>
					<path id="&lt;Path&gt;" class="s14" d="m123.8 285.4c0.5 0.1 0.8 0.6 0.9 1-0.4 0.1-0.7 0.2-1 0-0.3-0.2-0.2-0.8 0.1-0.8z"/>
					<path id="&lt;Path&gt;" class="s14" d="m118.7 286.9c0.1-0.2 0.4-0.2 0.6-0.1 0.2 0.1 0.4 0.3 0.5 0.5 0.1 0.2 0.3 0.5 0.2 0.7 0 0.3-0.3 0.5-0.6 0.4-0.2-0.1-0.2-0.4-0.4-0.6-0.2-0.2-0.6-0.2-0.7-0.5 0-0.1 0.1-0.3 0.2-0.4 0.1-0.1 0.3-0.2 0.5-0.2z"/>
					<path id="&lt;Path&gt;" class="s14" d="m116.9 287.4c0.2 0 0.3 0.2 0.3 0.4-0.1 0.1-0.2 0.3-0.3 0.3q-0.1 0.1-0.3 0.1c-0.2 0-0.4-0.2-0.4-0.4 0-0.2 0.3-0.4 0.5-0.3 0.2 0 0.4 0.2 0.4 0.4z"/>
					<path id="&lt;Path&gt;" class="s14" d="m121.5 309.4c0.2 0 0.3 0.2 0.2 0.3 0 0.2-0.1 0.3-0.2 0.4q-0.2 0.1-0.3 0.1c-0.2 0-0.4-0.2-0.4-0.4 0-0.2 0.2-0.4 0.4-0.4 0.3 0 0.4 0.2 0.5 0.4z"/>
					<path id="&lt;Path&gt;" class="s14" d="m116 285.3c0.2 0.1 0.2 0.4 0.1 0.5-0.2 0.1-0.4 0-0.5-0.1-0.1-0.1-0.2-0.3-0.2-0.4 0.2-0.3 0.7-0.1 0.7 0.2z"/>
					<path id="&lt;Path&gt;" class="s14" d="m121.3 288.9c0.3 0.1 0.5 0.3 0.5 0.5 0.1 0.2 0 0.5-0.2 0.6-0.1 0.1-0.3 0.1-0.4 0q0-0.1 0-0.2 0-0.5 0-0.9 0.1 0 0.2 0z"/>
					<path id="&lt;Path&gt;" class="s14" d="m122.7 293.3c-0.1 0.2 0.1 0.5 0.3 0.7 0.3 0.2 0.5 0.4 0.5 0.7q0 0.1-0.1 0.2c-0.2 0.1-0.4-0.1-0.5-0.3-0.2-0.1-0.3-0.1-0.5-0.1-0.3-0.2-0.6-0.6-0.6-1 0.1-0.1 0.4-0.2 0.6-0.2 0.2 0 0.3 0.2 0.4 0.4z"/>
					<path id="&lt;Path&gt;" class="s14" d="m120 294.1c0.1-0.1 0.3 0.1 0.3 0.2 0 0.2-0.2 0.4-0.4 0.3-0.2 0-0.3-0.2-0.3-0.4q0.2-0.1 0.3-0.1z"/>
					<path id="&lt;Path&gt;" class="s14" d="m119.4 301.8c0.2-0.1 0.4 0.1 0.4 0.3 0 0.2-0.2 0.3-0.4 0.3-0.2-0.1-0.3-0.3-0.3-0.5q0.1 0 0.3-0.1z"/>
					<path id="&lt;Path&gt;" class="s14" d="m115 283.3c0.2 0.1 0.4-0.2 0.3-0.4-0.1-0.2-0.2-0.4-0.3-0.6-0.1-0.2-0.1-0.4 0-0.6 0-0.2 0.1-0.3 0.3-0.3q0.1 0 0.2 0.1c0.4 0.2 0.7 0.5 0.9 0.9 0.3 0.3 0.3 0.8 0 1.2-0.2 0.2-0.5 0.3-0.8 0.2-0.3 0-0.5-0.2-0.6-0.5z"/>
					<path id="&lt;Path&gt;" class="s14" d="m124.5 281c0.5 0.3 0.6 1.1 0.1 1.4-0.3-0.3-0.7-0.5-0.8-1-0.1-0.4 0.1-0.9 0.5-1q0.3 0.3 0.6 0.5z"/>
					<path id="&lt;Path&gt;" class="s14" d="m127 295.5q0-0.3-0.1-0.6c0.7 0.3 1.6 1.4 2.2 2.4 0.2 0.3 0.4 0.7 0.5 1 0.1 0.3 0 0.5-0.2 0.5-0.3-0.1-0.6-0.5-0.8-0.8q-0.7-0.9-1.3-1.8c-0.2-0.3-0.4-0.6-0.5-0.9-0.1-0.2 0-0.4 0.3-0.3z"/>
					<path id="&lt;Path&gt;" class="s14" d="m123.5 297c0.1 0 0.2 0.2 0.2 0.3 0 0.1-0.1 0.2-0.2 0.3q-0.1 0.1-0.2 0.2c-0.2 0-0.4-0.1-0.5-0.3-0.1-0.1-0.1-0.4 0-0.5q0.1-0.1 0.3-0.2c0.1 0 0.2 0.1 0.2 0.2z"/>
					<path id="&lt;Path&gt;" class="s14" d="m147.4 326c0.9-0.7 2.3 0.4 2.1 1.5-0.2 1.2-1.5 1.8-2.6 1.5-1.1-0.2-1.9-1.2-2.3-2.3 0.7-0.8 2-1.3 3.1-1.1z"/>
					<path id="&lt;Path&gt;" class="s14" d="m141.9 330.7c0.4 0.2 0.8 0.6 0.8 1-0.3 0.1-0.7 0.2-0.9 0-0.3-0.2-0.3-0.8 0.1-0.8z"/>
					<path id="&lt;Path&gt;" class="s14" d="m139.6 354.7c0.1 0 0.2 0.2 0.2 0.4 0 0.1-0.1 0.2-0.3 0.3q-0.1 0.1-0.2 0.1c-0.2 0-0.4-0.2-0.4-0.4 0-0.2 0.2-0.4 0.4-0.4 0.2 0 0.4 0.2 0.4 0.4z"/>
					<path id="&lt;Path&gt;" class="s14" d="m139.4 334.2c0.2 0.1 0.4 0.3 0.5 0.5 0 0.2 0 0.5-0.2 0.6-0.1 0.1-0.4 0.1-0.4 0q-0.1-0.1-0.1-0.2 0.1-0.5 0.1-0.9 0.1 0 0.1 0z"/>
					<path id="&lt;Path&gt;" class="s14" d="m140.8 338.6c-0.1 0.2 0.1 0.5 0.3 0.7 0.2 0.2 0.5 0.4 0.5 0.7q-0.1 0.1-0.2 0.2c-0.1 0.1-0.3-0.1-0.5-0.3-0.1-0.1-0.3-0.1-0.4-0.1-0.4-0.2-0.6-0.6-0.6-1 0.1-0.1 0.3-0.2 0.5-0.2 0.2 0 0.4 0.2 0.5 0.4z"/>
					<path id="&lt;Path&gt;" class="s14" d="m138 339.4c0.2-0.1 0.4 0.1 0.4 0.2 0 0.2-0.2 0.4-0.4 0.3-0.2 0-0.3-0.2-0.3-0.4q0.1 0 0.3-0.1z"/>
					<path id="&lt;Path&gt;" class="s14" d="m137.5 347.1c0.2-0.1 0.4 0.1 0.4 0.3-0.1 0.2-0.3 0.3-0.4 0.3-0.2-0.1-0.3-0.3-0.3-0.5q0.1 0 0.3-0.1z"/>
					<path id="&lt;Path&gt;" class="s14" d="m145.1 340.8q-0.1-0.3-0.1-0.6c0.7 0.3 1.6 1.4 2.2 2.4 0.2 0.4 0.4 0.7 0.5 1 0 0.3 0 0.5-0.2 0.5-0.3-0.1-0.6-0.5-0.8-0.8q-0.7-0.9-1.3-1.8c-0.2-0.3-0.4-0.6-0.5-0.8-0.1-0.3 0-0.5 0.2-0.4z"/>
					<path id="&lt;Path&gt;" class="s14" d="m141.6 342.3c0.1 0 0.2 0.2 0.2 0.3 0 0.1-0.1 0.2-0.2 0.3q-0.1 0.1-0.2 0.2c-0.2 0-0.4-0.1-0.5-0.2-0.1-0.2-0.1-0.5 0-0.6q0.1-0.1 0.2-0.2c0.1 0 0.2 0.1 0.3 0.2z"/>
					<path id="&lt;Path&gt;" class="s14" d="m105.5 290.2c0.1 0.1 0.2 0.2 0.3 0.3 0.1 0.1 0.1 0.3 0 0.4-0.1 0.1-0.3 0.2-0.4 0.2-0.8 0-1.5-0.8-1.5-1.6 0.1-0.1 0.1-0.3 0.2-0.4q0.7 0.5 1.3 1z"/>
					<path id="&lt;Path&gt;" class="s14" d="m113.9 287.5q0.2 0.2 0.4 0.4 0.1 0.1 0.1 0.2c0.1 0.2-0.2 0.3-0.4 0.2-0.1-0.1-0.2-0.3-0.2-0.4q0.1-0.1 0.3-0.2z"/>
					<path id="&lt;Path&gt;" class="s14" d="m72.5 246c0.4-0.6 1.2-0.8 1.8-0.7q0.2 0 0.2 0.1c0.1 0.1 0.1 0.2 0.1 0.3-0.1 0.8-0.4 1.7-1.2 1.8-0.6 0.1-1.2-0.6-1-1.3q0.3 0 0.6-0.1z"/>
					<path id="&lt;Path&gt;" class="s14" d="m108.2 130c-0.1-0.2 0.2-0.5 0.4-0.5 0.4 0.8-0.1 1.7-0.8 2.2-0.7 0.4-1.6 0.4-2.4 0.2-1.5-0.4-2.8-1.5-3.3-2.9-0.5-1.4-0.1-3.2 1.1-4.1 0.5-0.4 1.1-0.7 1.7-0.5 0.3 0.1 0.6 0.3 0.8 0.6 1.5 1.3 2.6 3 3.2 4.9z"/>
					<path id="&lt;Path&gt;" class="s14" d="m112.2 152.5c1 0.4 0.9 2.2-0.1 2.7-1 0.5-2.4-0.2-2.7-1.3-0.4-1.1-0.1-2.3 0.6-3.2 1.1 0.1 2.1 0.9 2.6 1.9z"/>
					<path id="&lt;Path&gt;" class="s14" d="m104 146.2q-0.1 0-0.2-0.1c0.1 0.6-0.5 1.2-1.2 1.1-0.1 0-0.2-0.1-0.2-0.2 0-0.1 0.1-0.1 0.2-0.2 0.3-0.2 0-0.8 0.1-1.1q0.1-0.1 0.1-0.1 0.1 0 0.2 0 0.5 0.2 1 0.6z"/>
					<path id="&lt;Path&gt;" class="s14" d="m102 139.7q0-0.1 0-0.2c-0.3 0.2-0.5 0.5-0.9 0.4-0.2-0.1-0.3-0.3-0.4-0.5 0-0.3 0.1-0.5 0.1-0.7 0.6 0.1 1 0.4 1.2 0.9z"/>
					<path id="&lt;Path&gt;" class="s14" d="m99.3 142.3c-0.2 0.1-0.6 0-0.7-0.3 0-0.1 0.1-0.4-0.1-0.5q0 0-0.1 0-1-0.3-1.9-0.6 0.5-0.2 1-0.5c0.1-0.1 0.3-0.2 0.4-0.2 0.2 0 0.3 0.1 0.4 0.2 0.6 0.5 2.9 1.7 1 1.9z"/>
					<path id="&lt;Path&gt;" class="s14" d="m127.5 118.2c0.2 0.5-0.1 1.6-0.5 2.1-0.6 0.5-1.5 0.1-2 0.9-0.1 0.1-0.2 0.2-0.3 0.3-0.1 0-0.3-0.1-0.5-0.2-0.6-0.4-1.3-1-1.2-1.8 0-0.4 0.3-0.8 0.3-1.2-0.1-0.2-0.2-0.4-0.1-0.6 0-0.2 0.1-0.3 0.2-0.4 1.2-1.3 3.6-0.9 4.1 0.9z"/>
					<path id="&lt;Path&gt;" class="s14" d="m106 144.7q0.3 0 0.4 0.2c-0.3 0.2-0.7 0.1-1.1 0-0.3-0.1-0.5-0.2-0.5-0.4 0-0.2 0.1-0.3 0.1-0.5 0.1-0.3 0-0.7 0.2-0.9 0.2 0 0.4 0 0.5 0.2 0.1 0.1 0.2 0.3 0.2 0.5q0.1 0.6 0.2 1.2z"/>
					<path id="&lt;Path&gt;" class="s14" d="m105.1 150.7c0.2 0.4 0 1-0.3 1.3-0.3-0.3-0.5-0.5-0.5-0.9 0-0.3 0.5-0.6 0.6-0.3z"/>
					<path id="&lt;Path&gt;" class="s14" d="m101.1 147.3c0.2 0 0.4 0.2 0.4 0.5 0 0.2-0.1 0.4-0.2 0.6-0.1 0.3-0.2 0.5-0.5 0.6-0.2 0.2-0.6 0-0.6-0.2-0.1-0.3 0.2-0.5 0.3-0.8 0-0.2-0.2-0.5 0-0.7 0.1-0.2 0.3-0.2 0.4-0.1 0.2 0 0.3 0.1 0.4 0.2z"/>
					<path id="&lt;Path&gt;" class="s14" d="m99.6 146.2c0.1 0.1 0 0.3-0.2 0.3-0.1 0.1-0.3 0.1-0.4 0q-0.1 0-0.2-0.1c-0.2-0.2-0.1-0.5 0.1-0.6 0.2-0.1 0.4 0 0.5 0.2 0.1 0.1 0.1 0.4-0.1 0.5z"/>
					<path id="&lt;Path&gt;" class="s14" d="m100.8 144.2c0.1 0.2-0.1 0.4-0.3 0.3-0.2-0.1-0.3-0.2-0.2-0.4 0-0.2 0.1-0.3 0.2-0.5 0.3 0.1 0.5 0.6 0.2 0.8z"/>
					<path id="&lt;Path&gt;" class="s14" d="m100.8 150.6c0.1 0.2 0.1 0.5-0.1 0.7-0.1 0.2-0.4 0.2-0.6 0.2-0.1-0.1-0.3-0.2-0.2-0.4q0.1-0.1 0.1-0.1 0.4-0.2 0.8-0.5 0 0.1 0.1 0.2z"/>
					<path id="&lt;Path&gt;" class="s14" d="m98 154.2c-0.3 0.1-0.4 0.4-0.4 0.7 0 0.3-0.1 0.6-0.3 0.8q-0.1 0-0.2 0c-0.2-0.1-0.1-0.4-0.1-0.6 0-0.1-0.1-0.3-0.1-0.5-0.1-0.3 0.1-0.7 0.4-0.9 0.2-0.1 0.4 0.1 0.5 0.2 0.1 0.2 0.1 0.5 0 0.6z"/>
					<path id="&lt;Path&gt;" class="s14" d="m95.8 152.4c0.2 0.1 0.2 0.4 0 0.4-0.2 0.1-0.4 0-0.5-0.1 0-0.2 0.1-0.4 0.2-0.5q0.2 0.1 0.3 0.2z"/>
					<path id="&lt;Path&gt;" class="s14" d="m101.9 142.3c0.1 0.2 0.4 0.1 0.5-0.1 0.2-0.1 0.2-0.4 0.3-0.5 0.1-0.2 0.3-0.4 0.6-0.4 0.1 0 0.2 0 0.3 0.1q0.1 0.1 0.1 0.2c0 0.5 0 0.9-0.2 1.3-0.2 0.4-0.6 0.7-1 0.6-0.3 0-0.6-0.2-0.7-0.5-0.1-0.2-0.1-0.6 0.1-0.8z"/>
					<path id="&lt;Path&gt;" class="s14" d="m109.2 148.8c0 0.6-0.6 1-1.1 0.9 0-0.5 0.1-0.9 0.3-1.2 0.3-0.4 0.8-0.5 1.1-0.2q0 0.4 0 0.7z"/>
					<path id="&lt;Path&gt;" class="s14" d="m98.6 159.1q0.2-0.3 0.4-0.5c0.3 0.8-0.2 2.1-0.7 3.2-0.2 0.3-0.3 0.7-0.5 0.9-0.2 0.3-0.4 0.4-0.5 0.1-0.1-0.2 0-0.7 0.2-1.1q0.3-1 0.7-2.1c0.1-0.3 0.3-0.6 0.4-0.8 0.2-0.2 0.4-0.3 0.4 0z"/>
					<path id="&lt;Path&gt;" class="s14" d="m95.4 157c0.1 0.1 0 0.3-0.1 0.3-0.1 0.1-0.3 0.1-0.4 0.1q-0.1-0.1-0.3-0.2c-0.1-0.1-0.2-0.3-0.1-0.5 0.1-0.2 0.3-0.3 0.5-0.3q0.2 0 0.3 0.1c0.1 0.1 0.1 0.2 0 0.3z"/>
					<path id="&lt;Path&gt;" class="s14" d="m90.9 138.2c0 0.2 0 0.3-0.1 0.5-0.1 0.1-0.3 0.2-0.4 0.2-0.1 0-0.2-0.1-0.3-0.2-0.5-0.6-0.3-1.7 0.5-2.1 0.1-0.1 0.3-0.1 0.4-0.1q0 0.9-0.1 1.7z"/>
					<path id="&lt;Path&gt;" class="s14" d="m97.9 143.7q-0.1 0.3-0.2 0.6 0 0.1-0.1 0.2c-0.1 0.1-0.3 0-0.4-0.2 0-0.2 0.1-0.4 0.2-0.5q0.2 0.1 0.3 0.2z"/>
					<path id="&lt;Path&gt;" class="s14" d="m108.8 86.1c0.7 0.1 1.3 0.5 1.6 1.1q0.1 0.1 0 0.2c0 0.2-0.1 0.2-0.2 0.3-0.7 0.3-1.6 0.6-2.1 0-0.5-0.4-0.2-1.4 0.4-1.5q0.3 0.2 0.5 0.4z"/>
				</g>
				<path id="&lt;Path&gt;" class="s4" d="m66 215.9l19 7.6 7.2 30.4-11.6-26.6-20.4-8.4z"/>
				<path id="&lt;Path&gt;" class="s4" d="m29.7 290.6l11.3 26.1-2 8.2-11.3-8.2-9.7 34-18 13.3v-53.3l20-10.1z"/>
				<path id="&lt;Path&gt;" class="s4" d="m69 366.2c0 0 32.8-12.1 44.3-11.7 26.2 0.7 43 9.5 43 9.5l-38.7 17.3z"/>
				<path id="&lt;Path&gt;" class="s4" d="m92.6 112.7l3.9 15-14.4-3.7z"/>
				<path id="&lt;Path&gt;" class="s9" d="m117.6 381.3l-20.6 28.1 4.3 32.8v21.3l1.5 5.8-1.5 24.2-101.3 0.4v-129.9l18-13.3 15.5 70.6 18.9-39 2.1 5.6 14.5-21.7z"/>
				<path id="&lt;Path&gt;" class="s11" d="m118.7 379.4l11.8-5.9 3.3 0.5-11.7 5.3-0.6 5.5-13.8 10 6.9-14.4z"/>
				<path id="&lt;Path&gt;" class="s13" d="m97 409.4l48 28.2-7.7 50.5-36 5.4 1.5-24.2-1.5-5.8v-21.3z"/>
				<path id="&lt;Path&gt;" class="s9" d="m29.7 290.6l30.5-71.7v29.6 10.2l10.8-10.2-30 68.2z"/>
				<path id="&lt;Path&gt;" class="s9" d="m39 324.9l4 30.9-15.3-39z"/>
				<path id="&lt;Path&gt;" class="s9" d="m82.1 124l3.5 19.7-1.9 37.2-17.7 35z"/>
				<path id="&lt;Path&gt;" class="s11" d="m35.3 322.1h4.4l0.2 9.5-0.9-6.7z"/>
				<path id="&lt;Path&gt;" class="s11" d="m16.3 350.7l-1-1.2 2.3-2.1 2.3-3.4-0.8 11.8-3.8-3.1z"/>
				<path id="&lt;Path&gt;" class="s5" d="m147.4 365.3c0 0-1.6 0.7-4.2 1.6-6 2.2-17.3 6.3-24.8 7.9-6.9 1.4-21.2-1.8-30.7-4.3-5.3-1.4-9.1-2.6-9.1-2.6 0 0 9.7-6.8 32.9-8.9 23.1-2.1 35.9 6.3 35.9 6.3z"/>
				<path id="&lt;Path&gt;" class="s8" d="m143.3 366.9h-0.1c-6 2.2-17.3 6.3-24.8 7.9-6.9 1.4-21.2-1.8-30.7-4.3 0 0 9.4-6 29.9-6.5 20.6-0.5 25.7 2.9 25.7 2.9z"/>
				<path id="&lt;Path&gt;" class="s9" d="m136.8 222.2l-19.2 9.5 19.2-13z"/>
				<path id="&lt;Path&gt;" class="s9" d="m43 259.3l20.2 7 11.1 46.7 4.3-1 12 32-12-29.6-5.3 0.6-11.3-46.1z"/>
				<path id="&lt;Path&gt;" class="s9" d="m105.2 441l10.6 10.9h-5.3z"/>
				<path id="&lt;Path&gt;" class="s10" d="m109.4 449l6.4 2.9h-8.9l-1.7-10.9z"/>
				<path id="&lt;Path&gt;" class="s9" d="m68.8 352.7l11-10.5-0.1 5.3z"/>
				<path id="&lt;Path&gt;" class="s10" d="m76.8 348.5l3-6.3-0.1 8.9-10.9 1.6z"/>
				<path id="&lt;Path&gt;" class="s9" d="m94.3 232.1l14.1 5.6-4.9 2.1z"/>
				<path id="&lt;Path&gt;" class="s10" d="m101.4 237.6l7 0.1-8.2 3.6-5.9-9.2z"/>
				<path id="&lt;Path&gt;" class="s15" d="m167.8 355.2c4.2 21.4-16.8 43.6-47 49.4-30.1 5.9-57.9-6.8-62.1-28.3-4.1-21.5 16.9-43.6 47.1-49.5 30.1-5.8 57.9 6.9 62 28.4z"/>
			</g>
			<g id="lmountain-extra">
				<g id="&lt;Group&gt;">
					<path id="&lt;Path&gt;" class="s16" d="m359.6 520.5h7.2l14.3 5.2 22.5 3.8 27.3-4.5 133.9 5.2-268.6 9.9-117.6-6.6 3.8-4-24.8-4.1 32.6-18.8 14.8 5z"/>
					<path id="&lt;Path&gt;" class="s9" d="m308.5 533.5l-22.8 1.1 10.5 5.5-117.6-6.6 3.8-4-24.8-4.1 41.3-7.3 28.8 11.6 63.8-1.5z"/>
					<g id="&lt;Group&gt;">
						<path id="&lt;Path&gt;" class="s17" d="m329 526.4c0 0-90.5 4.5-98.7 3.7-8.3-0.7-31.4-12-31.4-12l-16.5-157.8 8.2-6.4v-52.8l0.2-0.3c1.4-1.9 9.2-12.9 20.8-26.9l11.2 21.3 1.8 0.5c5.9 1.5 25.9 7.2 43.2 15.8q0.7 0.4 1.4 0.7l12.4 73.6 1.8 2.3 6 43.9 5.2 0.9z"/>
						<path id="&lt;Path&gt;" class="s9" d="m204 308.6l4.7 14.6 8.7 47.6-3.5-0.4-23.3-16.5v-52.8z"/>
						<path id="&lt;Path&gt;" class="s9" d="m182.4 360.3l8.2 11.1 4.9 2-2 3.9 8.2 2.5 7 101.3 2.2 1.4v9.9l6.5 4.9 10.3 32.4-28.8-11.6z"/>
						<path id="&lt;Path&gt;" class="s9" d="m244.9 422.2v9.4l6.1 8.3 9.4 89.6-4.7-3.8-15.9-67.9-3.9-2.8-3.7-62 5.4 16z"/>
						<path id="&lt;Path&gt;" class="s18" d="m267.8 311.5h-22.1l-17.4-6.4-7.4 3.5h-16.9l-13.4-7.5 0.2-0.3 20.8-26.9 11.2 21.3 1.8 0.5c5.9 1.5 25.9 7.2 43.2 15.8z"/>
						<path id="&lt;Path&gt;" class="s19" d="m213.9 370.4l26.2 6.9-38.4 2.5-8.2-2.5 2-3.9-4.9-2-8.2-11.1 8.2-6.4z"/>
						<path id="&lt;Path&gt;" class="s19" d="m237.6 409l-2.3-6.9-3.1-9.1c0 0 15.5 3.9 23.5 9.1 8.1 5.1 25.6 17.3 23.1 20.1-2.5 2.7-19.6 5.6-23.1 5.6-3.4 0-10.8-5.6-10.8-5.6z"/>
						<path id="&lt;Path&gt;" class="s9" d="m245.7 311.5l-5.6 8.7-2.7-1.7-1.5 39.3-5.1-27.5h-1.6l-0.9-25.2z"/>
						<path id="&lt;Path&gt;" class="s19" d="m294.6 432.9l-5.4 11.1-8.4 2.4 6-7.7 2.6-6.7z"/>
						<path id="&lt;Path&gt;" class="s5" d="m274.6 420.7c-1.6 3.4-12.9 5.3-17.5 4.9-4.7-0.5-10.3-2-12.8-8.3-2.5-6.3-7.3-19.2-7.3-19.2 14-0.7 39.2 19.2 37.6 22.6z"/>
						<path id="&lt;Path&gt;" class="s8" d="m240.8 408.2c0 0 10.1 2.7 14.9 6.2 4.9 3.6 9.5 10.5 9.5 10.5 0 0-10.4 2.2-16.3-1.9-5.8-4-8.1-14.8-8.1-14.8z"/>
						<path id="&lt;Path&gt;" class="s18" d="m278.8 422.2l4.6 55.5-2.3 9.6-0.3 25.2-20.4 12.9-9.4-85.5-6.1-8.3v-9.4c0 0 8.2 5.3 10.8 5.6 2.6 0.3 17.5-0.9 23.1-5.6z"/>
						<path id="&lt;Path&gt;" class="s18" d="m217.4 497.3l28.3-14.4 10 42.8h-28z"/>
						<path id="&lt;Path&gt;" class="s18" d="m294.6 432.9l26.3 71.4-6.5-5.3-4.3-9.2-2.2 2.6-18.7-48.4z"/>
						<path id="&lt;Path&gt;" class="s20" d="m291.5 528.2v-54.4c0 0 38.1-5.5 56.4 18.6l4.5 14.8 4.1 1.5 5.5 20.8c0 0-44.8 4.6-51.9 3.9-7.1-0.8-18.6-5.2-18.6-5.2z"/>
						<path id="&lt;Path&gt;" class="s5" d="m344.6 494.9c-0.3 0.6-1.4 1.4-3 2.2-4.1 2.1-11.8 4.1-20.7 1.7-6.2-1.7-14.1-7.2-19.7-12.3v-0.1c-5.6-5-9-9.6-6.6-9.9 35.2-3.5 50.9 16.3 50 18.4z"/>
						<path id="&lt;Path&gt;" class="s8" d="m341.6 497.1c-4.1 2.1-11.8 4.1-20.7 1.7-6.2-1.7-14.1-7.2-19.7-12.3v-0.1c0 0 17.2-0.7 27.8 3.6 5.9 2.4 10.1 5.2 12.6 7.1z"/>
						<path id="&lt;Path&gt;" class="s9" d="m297.6 486.4l5.3 10.9 2.2 6.1 1.1 18.2 2.3 0.9v11l-17-5.3v-54.4c2.3 11.3 6.1 12.6 6.1 12.6z"/>
						<path id="&lt;Path&gt;" class="s19" d="m356.5 508.7l-14.9 7.2h-16.4l15.5-3.6 11.7-5.1z"/>
						<path id="&lt;Path&gt;" class="s21" d="m204 379.7l-2 4.8-4.1-5.8z"/>
						<path id="&lt;Path&gt;" class="s21" d="m245.7 423.2l-0.8 2.4-0.8-4.9z"/>
						<path id="&lt;Path&gt;" class="s21" d="m289.2 444l1.3 3.3-4.8-2.3z"/>
						<path id="&lt;Path&gt;" class="s9" d="m341.6 522.5h-11.3l14.3-4.1z"/>
						<path id="&lt;Path&gt;" class="s9" d="m262.6 477.8l4 6.4-4-4z"/>
						<path id="&lt;Path&gt;" class="s9" d="m223.8 451.7l-3.3 5.3 3.3-10.6z"/>
						<path id="&lt;Path&gt;" class="s11" d="m330.3 522.5l10.6-1 3.7-3.1-3 4.1z"/>
						<path id="&lt;Path&gt;" class="s11" d="m262.6 477.8l1.1 2.9 2.9 3.5-4-3.6z"/>
						<path id="&lt;Path&gt;" class="s11" d="m224.9 452.5l-4.4 4.5 3.3-5.3v-5.3z"/>
						<path id="&lt;Path&gt;" class="s18" d="m269.2 312.2l12.2 72.3-10.5-5.1h-3.9l-31.1-21.6 4.2-37.6 5.6-8.7z"/>
						<path id="&lt;Path&gt;" class="s9" d="m281.6 385.8l-10.7-5.1-4.2-0.9-27.2-19.5 27.2 18.4 4.2 0.7 8.2 3.9 1.7-3.5z"/>
						<path id="&lt;Path&gt;" class="s11" d="m270.9 380.7l10.7 5.1 1.8 2.3-4.3-1.6-8.1-5-4.3-1.7z"/>
						<path id="&lt;Path&gt;" class="s9" d="m222.5 378.4l-1.2 1.4 0.5 11.2-3.7 1.4-9.1 37.1 8.4-37.8 3.1-1.2 0.2-11.9-25.2-5.2z"/>
						<path id="&lt;Path&gt;" class="s18" d="m220.7 378.6l-0.2 11.9-3.1 1.2-8.4 39.5-3.5 3.4-3.5-50.1 2-4.8z"/>
						<path id="&lt;Path&gt;" class="s11" d="m221.8 391l-0.9 1.4-2 0.6-1.7 2.8 0.9-3.4z"/>
					</g>
				</g>
				<path id="&lt;Path&gt;" class="s22" d="m289.8 414.4c0 18.8-15.3 34.1-34.1 34.1-18.9 0-34.2-15.3-34.2-34.1 0-18.9 15.3-34.2 34.2-34.2 18.8 0 34.1 15.3 34.1 34.2z"/>
				<path id="&lt;Path&gt;" class="s23" d="m356.4 487.4c0 20.8-16.9 37.7-37.7 37.7-20.8 0-37.6-16.9-37.6-37.7 0-20.8 16.8-37.7 37.6-37.7 20.8 0 37.7 16.9 37.7 37.7z"/>
			</g>
		</g>
	</g>
</svg>