<svg version="1.2" xmlns="http://www.w3.org/2000/svg" viewBox="0 0 387 285" width="387" height="285">
	<title>1876-ai</title>
	<defs>
		<linearGradient id="g1" x1="34.9" y1="12" x2="355.3" y2="12" gradientUnits="userSpaceOnUse">
			<stop offset="0" stop-color="#ff6393"/>
			<stop offset="1" stop-color="#000000"/>
		</linearGradient>
		<radialGradient id="g2" cx="39.6" cy="238" r="21.6" gradientUnits="userSpaceOnUse">
			<stop offset="0" stop-color="#ff006a"/>
			<stop offset="1" stop-color="#000000"/>
		</radialGradient>
		<linearGradient id="g3" x1="36.9" y1="65" x2="265" y2="65" gradientUnits="userSpaceOnUse">
			<stop offset="0" stop-color="#ffffff"/>
			<stop offset="1" stop-color="#000000"/>
		</linearGradient>
	</defs>
	<style>
		.s0 { opacity: .6;mix-blend-mode: screen;fill: url(#g1) } 
		.s1 { opacity: .6;mix-blend-mode: screen;fill: url(#g2) } 
		.s2 { fill: #ffffff } 
		.s3 { mix-blend-mode: screen;fill: url(#g3) } 
	</style>
	<g id="space">
		<g id="&lt;Clip Group&gt;">
			<g id="meteoro-sm">
				<path id="&lt;Path&gt;" class="s0" d="m34.9 235.5c0 0 59-54.3 143.1-114q0.6-0.4 1.3-0.9c3.7-5.6 11.7-5.6 15.8-11.1 0.5-0.3 0.9-0.6 1.4-0.9 6.5-7.6 16.5-5.6 21.2-14.3 0.7-0.5 1.3-0.9 2-1.3q1-0.7 2-1.3 1-0.7 1.9-1.4c3.4-5.3 9.4-7.3 16.1-10.3q1-0.7 2.1-1.3 2-1.3 4-2.5 1-0.7 2-1.3c9.2-1.9 15.2-1.9 18.3-11.2q1-0.6 2.1-1.2 4-2.4 8.1-4.8 1-0.6 2-1.2c4.7-7.5 10.7-9.5 18.4-10.5q1-0.6 2.1-1.1c18.5-10.3 37.5-20.1 56.5-28.9 0 0-21.4 12.8-54 33.5q-0.8 0.5-1.5 1c-8.8-1.5-14.8 0.5-17.4 11.1q-0.5 0.4-1.1 0.7-4.4 2.9-9 5.9-0.6 0.3-1.1 0.7c-4.2 6.1-12.2 8.1-17.4 11.4q-0.5 0.4-1.1 0.7-3.4 2.3-6.8 4.5-0.5 0.4-1 0.7c-9.9-1.2-13.9 2.8-17.2 11.6q-0.5 0.3-1.1 0.7-2.1 1.5-4.3 3-0.6 0.3-1.1 0.7c-6.2 6.8-14.2 6.8-18.4 12.6q-0.6 0.5-1.3 0.9c-8.5 1.3-12.5 3.3-17.1 12q-0.7 0.5-1.3 1c-49.5 35.1-100.5 74.2-138.9 110.6z"/>
				<path id="&lt;Path&gt;" class="s1" d="m61.3 238c0 11.9-9.7 21.6-21.7 21.6-11.9 0-21.6-9.7-21.6-21.6 0-12 9.7-21.6 21.6-21.6 12 0 21.7 9.6 21.7 21.6z"/>
				<path id="&lt;Path&gt;" class="s2" d="m46.7 238c0 3.9-3.2 7-7.1 7-3.8 0-7-3.1-7-7 0-3.9 3.2-7 7-7 3.9 0 7.1 3.1 7.1 7z"/>
				<path id="&lt;Path&gt;" class="s3" d="m36.3 234.3c0 0 65.8-57.6 142.8-111.6q0.7-0.5 1.3-1c5.9-4.2 9.8-7.9 14.9-10.5q0.8-0.5 1.7-0.9c6-5.3 16-7.3 21.6-14.1 0.6-0.6 1.3-1 2-1.5q0.9-0.6 1.9-1.2 1-0.6 2-1.2c2.5-7.3 10.5-9.3 17.4-10.9q1-0.5 1.9-1.1 2-1.2 3.9-2.3 1-0.6 1.9-1.2c3.4-5.8 15.4 4.2 15.4-7.8 0 8-10 4-14.3 9.2q-0.6 0.5-1.3 0.9-2.8 2-5.9 4.1-0.6 0.5-1.3 0.9c-7.2-1.1-13.2 2.9-15.9 11.4q-0.5 0.3-1.1 0.7-1 0.8-2.1 1.6-0.8 0.5-1.5 1c-6.6 6.2-12.6 10.2-20.3 14.6q-0.6 0.5-1.2 0.9c-9.1-1.3-11.1 8.7-16.9 12.3q-0.6 0.4-1.2 0.9c-49.3 36.2-108.2 81.6-142.4 115.2 0 0-4.2-0.8-3.3-8.4z"/>
				<path id="&lt;Path&gt;" class="s2" d="m61.5 223.9c0.2-0.3 0.7-0.2 0.9 0.1-0.6 0.9-1.9 1.2-2.9 0.8-1-0.3-1.7-1.3-2.2-2.3-0.7-1.8-0.6-4 0.4-5.7 1.1-1.6 3.2-2.6 5.2-2.2 0.8 0.2 1.5 0.7 1.8 1.5 0.1 0.4 0.1 0.8 0.1 1.2-0.3 2.6-1.2 5.1-2.6 7.3z"/>
				<path id="&lt;Path&gt;" class="s2" d="m27.2 255.3c0.2-0.3 0.7-0.3 0.9 0.1-0.6 0.9-1.9 1.2-2.9 0.8-1-0.4-1.7-1.3-2.1-2.3-0.8-1.9-0.7-4.1 0.3-5.7 1.1-1.7 3.2-2.7 5.2-2.2 0.8 0.2 1.6 0.7 1.8 1.4 0.1 0.4 0.1 0.9 0.1 1.3-0.3 2.6-1.2 5.1-2.6 7.3z"/>
				<path id="&lt;Path&gt;" class="s2" d="m139.6 156.1c0.2-0.2 0.5-0.1 0.6 0.1-0.4 0.7-1.3 0.9-2 0.6-0.7-0.3-1.2-0.9-1.5-1.7-0.6-1.2-0.5-2.8 0.2-4 0.8-1.1 2.3-1.8 3.7-1.5 0.5 0.1 1.1 0.5 1.3 1 0.1 0.3 0 0.6 0 0.9-0.2 1.8-0.8 3.6-1.8 5.1z"/>
				<path id="&lt;Path&gt;" class="s2" d="m50.8 227.1c0.4 1.4-1.5 2.7-2.8 2-1.4-0.7-1.6-2.6-0.8-3.9 0.7-1.2 2.3-1.8 3.8-1.9 0.7 1.3 0.8 3 0.1 4.3z"/>
				<path id="&lt;Path&gt;" class="s2" d="m71.6 225.6q0-0.1 0.1-0.2c-0.6 0.6-1.8 0.4-2.1-0.4-0.1-0.1-0.1-0.3 0-0.4 0.1 0 0.2 0.1 0.3 0.1 0.5 0.1 0.8-0.6 1.3-0.8q0.1 0 0.2 0.1 0.1 0 0.1 0.1 0.2 0.8 0.2 1.5z"/>
				<path id="&lt;Path&gt;" class="s2" d="m47.1 245.8q0-0.1 0-0.2c-0.6 0.5-1.7 0.3-2.1-0.4 0-0.1-0.1-0.4 0.1-0.4 0.1 0 0.2 0 0.3 0 0.5 0.2 0.8-0.6 1.3-0.7q0.1 0 0.2 0 0 0.1 0.1 0.2 0.2 0.7 0.1 1.5z"/>
				<path id="&lt;Path&gt;" class="s2" d="m78.5 200q0-0.2 0.1-0.4c-1.2 1-3.3 0.6-4-0.7-0.1-0.3-0.1-0.7 0.2-0.8 0.1-0.1 0.3 0 0.5 0.1 0.9 0.2 1.5-1.2 2.5-1.4 0.1 0 0.2 0 0.3 0 0.1 0.1 0.1 0.2 0.2 0.3q0.4 1.4 0.3 2.9z"/>
				<path id="&lt;Path&gt;" class="s2" d="m33.8 239.2q0-0.3 0.1-0.5c-1.1 1.1-3.3 0.7-3.9-0.7-0.2-0.3-0.2-0.7 0.1-0.8 0.2 0 0.3 0.1 0.5 0.1 0.9 0.3 1.5-1.1 2.5-1.4 0.1 0 0.2 0 0.3 0.1 0.1 0.1 0.2 0.2 0.2 0.3q0.4 1.4 0.3 2.8z"/>
				<path id="&lt;Path&gt;" class="s2" d="m89 188.4c-0.2-0.3-0.4-0.7-0.3-0.9 0.2-0.2 0.5-0.3 0.5-0.6q0-0.1-0.1-0.2-0.4-1.2-0.9-2.3 0.7 0.3 1.4 0.6c0.2 0 0.4 0.1 0.5 0.2 0.1 0.2 0.1 0.4 0.1 0.6 0 1 0.5 4.3-1.2 2.6z"/>
				<path id="&lt;Path&gt;" class="s2" d="m109.6 171.4c-0.3-0.3-0.5-0.7-0.3-0.9 0.2-0.2 0.5-0.3 0.5-0.6q0-0.1-0.1-0.2-0.5-1.2-0.9-2.3 0.6 0.3 1.4 0.6c0.2 0 0.3 0.1 0.5 0.2 0.1 0.2 0.1 0.4 0.1 0.6 0 1 0.5 4.4-1.2 2.6z"/>
				<path id="&lt;Path&gt;" class="s2" d="m104.2 198.8c-0.2 0.7-1.2 0.9-1.7 0.4-0.5-0.5-0.2-1.5 0.5-1.7 0.7-0.2 1.4 0.6 1.2 1.3z"/>
				<path id="&lt;Path&gt;" class="s2" d="m77.2 211.3c0.3 0.5 0.6 1.1 0.2 1.5-0.4 0.4-1 0.1-1.5-0.2-0.1-0.2-0.4-0.3-0.3-0.6 0-0.5 1.1-0.3 1.3-0.8 0.2-0.1 0.3 0.2 0.1 0.3z"/>
				<path id="&lt;Path&gt;" class="s2" d="m112.5 177.3c0.3 0.4 0.6 1.1 0.2 1.5-0.4 0.3-1 0-1.5-0.3-0.2-0.1-0.4-0.3-0.3-0.5 0-0.6 1.1-0.3 1.3-0.9 0.1 0 0.2 0.3 0.1 0.4z"/>
				<path id="&lt;Path&gt;" class="s2" d="m54.1 214.4q0.1 0.3 0.1 0.6c-0.5-0.1-0.8-0.7-1-1.2-0.1-0.3-0.2-0.6 0-0.8 0.2-0.2 0.4-0.1 0.6-0.2 0.4-0.2 0.7-0.7 1.1-0.5 0.2 0.1 0.3 0.4 0.3 0.6-0.1 0.2-0.3 0.4-0.4 0.6q-0.6 0.6-1.1 1.1z"/>
				<path id="&lt;Path&gt;" class="s2" d="m95 171.8q0.1 0.3 0.1 0.6c-0.5-0.1-0.8-0.7-1-1.2-0.1-0.2-0.2-0.6 0.1-0.8 0.1-0.1 0.3-0.1 0.5-0.2 0.4-0.2 0.8-0.7 1.1-0.5 0.3 0.1 0.3 0.4 0.3 0.6-0.1 0.2-0.3 0.4-0.4 0.6q-0.5 0.6-1.1 1.1z"/>
				<path id="&lt;Path&gt;" class="s2" d="m47.1 218.3c-0.3 0.5-1 0.8-1.6 0.7 0.1-0.5 0.1-0.9 0.5-1.2 0.3-0.3 1 0 0.8 0.4z"/>
				<path id="&lt;Path&gt;" class="s2" d="m18.2 205.7c0 0.2-0.3 0.3-0.5 0.2-0.2-0.1-0.3-0.3-0.3-0.5q-0.1-0.2 0-0.3c0-0.3 0.4-0.5 0.6-0.4 0.3 0.1 0.4 0.5 0.3 0.7-0.1 0.3-0.4 0.4-0.7 0.4z"/>
				<path id="&lt;Path&gt;" class="s2" d="m74.8 192.3c-0.1 0.2-0.5 0.1-0.5-0.1-0.1-0.2 0-0.5 0.2-0.6 0.2-0.1 0.4-0.1 0.7-0.1 0.2 0.4-0.2 0.9-0.6 0.9z"/>
				<path id="&lt;Path&gt;" class="s2" d="m59.8 209c-0.3 0.3-0.8 0.3-1.1 0.1-0.3-0.2-0.4-0.7-0.1-1 0.1-0.2 0.3-0.2 0.5-0.2q0.6-0.2 1.3-0.3c0 0.5-0.2 1-0.5 1.4z"/>
				<path id="&lt;Path&gt;" class="s2" d="m164.4 143.5c-0.4 0.2-0.8 0.3-1.1 0.1-0.4-0.2-0.5-0.8-0.2-1 0.2-0.2 0.4-0.2 0.6-0.3q0.6-0.1 1.2-0.3c0.1 0.6-0.1 1.1-0.5 1.5z"/>
				<path id="&lt;Path&gt;" class="s2" d="m75.9 208.5c-0.2 0.5-1 0.4-1.2-0.1-0.2-0.4 0.2-1 0.6-1.2 0.3-0.2 0.7-0.2 1.1-0.1 0.1 0.5-0.2 1-0.7 1.3z"/>
				<path id="&lt;Path&gt;" class="s2" d="m72.7 212.9c-0.1 0.3-0.4 0.5-0.8 0.5q-0.2-0.6-0.3-1.1c0.4-0.4 1.1-0.2 1.3 0.3z"/>
				<path id="&lt;Path&gt;" class="s2" d="m70.4 224.6q0.1 0.2 0.3 0.5c-0.4 0-0.8 0-1.1-0.1-0.4-0.1-0.7-0.4-0.7-0.7 0.1-0.4 0.5-0.7 0.8-0.5 0.3 0.2 0.5 0.5 0.7 0.9z"/>
				<path id="&lt;Path&gt;" class="s2" d="m32.5 233.5q0.1 0.2 0.3 0.4c-0.4 0-0.8 0.1-1.1-0.1-0.4-0.1-0.7-0.4-0.7-0.7 0.1-0.4 0.5-0.7 0.8-0.5q0.5 0.4 0.7 0.9z"/>
				<path id="&lt;Path&gt;" class="s2" d="m35.5 233.5q0.1 0.2 0.2 0.4c-0.3 0-0.7 0.1-1-0.1-0.4-0.1-0.7-0.4-0.7-0.7 0-0.4 0.5-0.7 0.8-0.5 0.3 0.2 0.5 0.5 0.7 0.9z"/>
				<path id="&lt;Path&gt;" class="s2" d="m43.7 213.8c-0.1 0.3-0.4 0.5-0.7 0.4-0.3 0-0.6-0.2-0.7-0.5-0.1-0.2 0-0.4 0.2-0.5q0.1 0 0.3 0.1 0.5 0.2 1 0.4 0 0.1-0.1 0.2z"/>
				<path id="&lt;Path&gt;" class="s2" d="m203.9 109.3c-0.9-0.3 1.1-0.3 0.3-0.6z"/>
				<path id="&lt;Path&gt;" class="s2" d="m225.8 96.6c-0.2 0.2 0.2 0.5 0.4 0.5 0.3 0 0.6-0.2 0.9-0.2-0.1 0.1 1.9 0.1 0.9 0.7q0 0.2-0.2 0.3c-0.4 0.4-0.8 0.7-1.4 0.8-0.5 0.1-1.2 0-1.5-0.5-0.2-0.3-0.2-0.8 0-1.1 0.2-0.4 0.6-0.6 1-0.6z"/>
				<path id="&lt;Path&gt;" class="s2" d="m97 190.5c-0.5-0.6-1-1.3-1.3-2-0.1-0.1-0.1-0.3-0.1-0.5 0.1-0.1 0.3-0.2 0.5-0.2q0.6-0.2 1.1-0.4c0.5-0.1 1.1-0.2 1.3 0.2 0.2 0.3 0.1 0.7 0 1-0.2 0.5-0.7 1.1-1.2 0.9z"/>
				<path id="&lt;Path&gt;" class="s2" d="m83.1 197.2c4.1 2.6 6.7-2.5 3.8-5.5-3-3.2-7.4 3.2-3.8 5.5z"/>
				<path id="&lt;Path&gt;" class="s2" d="m54.6 231.7c4.2 2.6 6.8-2.5 3.8-5.5-3-3.2-7.4 3.2-3.8 5.5z"/>
				<path id="&lt;Path&gt;" class="s2" d="m44.2 239.3c4.1 2.6 6.8-2.5 3.8-5.5-3-3.1-7.4 3.3-3.8 5.5z"/>
				<path id="&lt;Path&gt;" class="s2" d="m30.3 227.2c4.2 2.7 6.8-2.5 3.9-5.5-3.1-3.1-7.5 3.3-3.9 5.5z"/>
				<path id="&lt;Path&gt;" class="s2" d="m222.7 98.3c2.4 1.5 3.9-1.5 2.2-3.2-1.8-1.9-4.3 1.9-2.2 3.2z"/>
				<path id="&lt;Path&gt;" class="s2" d="m52.3 221c-0.6 0.5-1.6 0.2-1.8-0.4 0.5-0.4 1-0.7 1.5-0.7 0.6 0 1.2 0.5 1.1 1q-0.4 0.4-0.8 0.7z"/>
				<path id="&lt;Path&gt;" class="s2" d="m196.3 116.2c0.7-11.2-1.3 0.8-0.5 0.1z"/>
				<path id="&lt;Path&gt;" class="s2" d="m266.8 68c0.2-1-11.8 1 0 0.1z"/>
				<path id="&lt;Path&gt;" class="s2" d="m52.3 178.9c-0.4 0.3-1.1 0.1-1.4-0.3-0.3-0.5-0.1-1.2 0.4-1.5q0.2-0.1 0.5-0.1c0.4 0.1 0.6 0.5 0.7 0.8 0 0.4 0 0.8-0.1 1.1z"/>
				<path id="&lt;Path&gt;" class="s2" d="m80.5 192c0.2 0.5-0.3 1.1-0.8 1q-0.3-0.3-0.4-0.7c0.2-0.2 0.6-0.3 0.9-0.2z"/>
				<path id="&lt;Path&gt;" class="s2" d="m51.5 231.4c-0.4 0-0.7-0.3-0.7-0.7q0.3-0.2 0.6-0.2 0.1 0.4 0.2 0.7z"/>
			</g>
		</g>
	</g>
</svg>