<svg version="1.2" xmlns="http://www.w3.org/2000/svg" viewBox="0 0 1526 236" width="1526" height="236">
	<title>1876-ai</title>
	<defs>
		<linearGradient id="g1" x1="11.9" y1="224.3" x2="11.9" y2="16" gradientUnits="userSpaceOnUse">
			<stop offset="0" stop-color="#081e77"/>
			<stop offset="1" stop-color="#120751"/>
		</linearGradient>
		<linearGradient id="g2" x1="862.8" y1="228.3" x2="862.8" y2="20" gradientUnits="userSpaceOnUse">
			<stop offset="0" stop-color="#081e77"/>
			<stop offset="1" stop-color="#120751"/>
		</linearGradient>
	</defs>
	<style>
		.s0 { fill: url(#g1) } 
		.s1 { opacity: .2;mix-blend-mode: overlay;fill: #ffffff } 
		.s2 { fill: url(#g2) } 
		.s3 { fill: #43b3f7 } 
		.s4 { fill: #43e0f7 } 
	</style>
	<g id="space">
		<g id="&lt;Clip Group&gt;">
			<g id="midMountain">
				<path id="intoLM" class="s0" d="m15.9 173.7l7.8-5.8v5.8 4.2h7.8l12.8 6.7 27.9-16.7h9.4l6.2 8.3h17.2l15.6-45h6.7l7.8-34.5 10.3-0.7 5.8-76.6h4.2l4.2 90.1 6.7 2.2v23.9l15.6 3.4 11.1 26.6 9.5 0.6v-36.7l17.2-35.6v-9.5l16.7 0.7v4.4l10.6 12.5 10 50.3 5 2.2v9.5l6.7 7.2v7.8l18.4 32.3h6.1l61.8 9.4 32.3 3.6h-113.9l3.9-19.2 18.3-5.5 5.6-13.4 7.8-3.9 8.9-36.7 6.1-15.5 4.5-8.3 5-6.2 10.6 0.5v-15.5l8.9-12.3v11.2h10.6v-80.1l7.2-3.4 1 36.9 1.8 1v27.2l5.6 1.7v58.4l8.3 3.9v18.3l5 1.1v13.9l7.3 2.3 8.3 18.9 38.4 19.4 9 5.3 15.5-5.3 11.7-11.6 3.9-1.2v-12.2l3.9-7.2v-13.9l8.4-16.2 7.2 13.4 5.6-3.9 11.1-3.3v-21.7l26.8-21.3 4.4 10.7 6.1-2.8 6.7 16.2 17.3 3.9v20l5.6 2.2 3.8 11.7 13.4 4.4 16.2 25.6 7.2 3.3v-18.9l9.5-7.2 7.8-28.9 10-6.7 3.9-20 7.8-20.6v52.8l7.8 5.6 4.4 22.8 6.7 2.2v-125.1-5.6l8.9-24.4 9.5-7.8v20.6h5.6l7.2 34.4 19.2 31.6v9.9 20l8.4 9.2 15.8 17.5v20.9h21.7l9.2 17.5h11.7l22.6-11.7 7.5-23.4v-25l5.8-7.5v-12.5l5.9-1.7 5-13.2v-46.9l15.9-36.7 6.7 188h-852.2z"/>
				<path id="&lt;Path&gt;" class="s1" d="m309 182.3l5.6 3.9-5.1 2.8-8.3-2.8z"/>
				<path id="&lt;Path&gt;" class="s1" d="m353 88.3v2 9.2l20.6 1.3-29.5 5.3v-5.5z"/>
				<path id="&lt;Path&gt;" class="s1" d="m367.5 50.5l6.1 3.4-7 11.4v-4.8h-3z"/>
				<path id="&lt;Path&gt;" class="s1" d="m387.5 145.1l-10.3 6.4h-10.9l2.3-5.3 10.6-5z"/>
				<path id="&lt;Path&gt;" class="s1" d="m392.5 164.5l-13.9 1.4 4.5-2.5h4.4z"/>
				<path id="&lt;Path&gt;" class="s1" d="m399.8 180.7l-10.3 1.6h-18.7l16.7-1.6 5-2.3z"/>
				<path id="&lt;Path&gt;" class="s1" d="m429.5 210.4l-35 3.6-50.4-4.1h41.2l22.8-10.3z"/>
				<path id="&lt;Path&gt;" class="s1" d="m295.6 199.6l24.5 5h-10-20.9-10.1z"/>
				<path id="&lt;Path&gt;" class="s1" d="m344.1 116.1l6.3 1.4-3.7 2.4h18.3l-20.9 4.3-15.6-2.4 5-6.2z"/>
				<path id="&lt;Path&gt;" class="s1" d="m105 176.2l40.4 4.7-26.7 4.8-30.9-9.5z"/>
				<path id="&lt;Path&gt;" class="s1" d="m127.3 131.2l11.8 2.1-1.7 1.5 16.8 1.6-20.5 2.1-13.1-7.3z"/>
				<path id="&lt;Path&gt;" class="s1" d="m166.3 111.7l-20.9 0.6 8.8-1.5 5.4-1.3z"/>
				<path id="&lt;Path&gt;" class="s1" d="m145.4 96l4 1.7-8.2 1-6.1-2z"/>
				<path id="&lt;Path&gt;" class="s1" d="m181.9 139l-15.6-0.5-8.6-1.7 8.6-1.2z"/>
				<path id="&lt;Path&gt;" class="s1" d="m202.5 166.2l5.3 1.5-2.6 2.1-17.4-1.1 5.2-3.1z"/>
				<path id="&lt;Path&gt;" class="s1" d="m155.4 19.4l-5 11.1 0.8-11.1z"/>
				<path id="&lt;Path&gt;" class="s1" d="m236.4 85.1v4.4l-9.2 0.4-7.5-5.5z"/>
				<path id="&lt;Path&gt;" class="s1" d="m219.7 93.9l2.5 4.8-7.1 19.4 3.6-1.5-10.9 13-5.3-0.1z"/>
				<path id="&lt;Path&gt;" class="s1" d="m262 154.5l-7.5 2.4 2.5 1.9h-20.6l20.6-6.5z"/>
				<path id="&lt;Path&gt;" class="s1" d="m268.7 171.2l-15.1-2.6 8.4-4.6z"/>
				<path id="&lt;Path&gt;" class="s1" d="m293.2 211.3l42.7 6.5-67.2-0.4 3.1-3.4h-59.5l74.8-2.7z"/>
				<path id="&lt;Path&gt;" class="s1" d="m164.6 199.6h13.4l-3.4 2.5 23.2 2.5-55.6 1.3z"/>
				<path id="intoRM" class="s2" d="m866.8 177.7l7.8-5.8v5.8 4.2h7.8l12.8 6.7 27.9-16.7h9.4l6.2 8.3h17.2l15.6-45h6.7l7.8-34.5 10.3-0.7 5.8-76.6h4.2l4.2 90.1 6.7 2.2v23.9l15.6 3.4 11.1 26.6 9.5 0.6v-36.7l17.2-35.6v-9.5l16.7 0.7v4.4l10.6 12.5 10 50.3 5.1 2.2v9.5l6.6 7.2v7.8l18.4 32.3h6.1l61.8 9.4 32.3 3.6h-113.9l3.9-19.2 18.3-5.5 5.6-13.4 7.8-3.9 8.9-36.7 6.1-15.5 4.5-8.3 5-6.2 10.6 0.5v-15.5l8.9-12.3v11.2h10.6v-80.1l7.2-3.4 1 36.9 1.8 1v27.2l5.6 1.7v58.4l8.3 3.9v18.3l5 1.1v13.9l7.3 2.3 8.3 18.9 38.4 19.4 9 5.3 15.5-5.3 11.7-11.6 3.9-1.2v-12.2l3.9-7.2v-13.9l8.4-16.2 7.2 13.4 5.6-3.9 11.1-3.3v-21.7l26.8-21.3 4.4 10.7 6.1-2.8 6.7 16.2 17.3 3.9v20l5.6 2.2 3.9 11.7 13.3 4.4 16.2 25.6 7.2 3.3v-18.9l9.5-7.2 7.8-28.9 10-6.7 3.9-20 7.8-20.6v52.8l7.8 5.6 4.4 22.8 6.7 2.2v-125.1-5.6l8.9-24.4 9.5-7.8v20.6h5.6l7.2 34.4 19.2 31.6v9.9 20l8.4 9.2 15.8 17.5v20.9h21.8l9.1 17.5h11.7l22.6-11.7 7.5-23.4v-25l5.9-7.5v-12.5l5.8-1.7 5-13.2v-46.9l15.9-36.7 6.7 188h-852.2z"/>
				<path id="&lt;Path&gt;" class="s1" d="m955.9 176.2l40.4 4.7-26.7 4.8-30.9-9.5z"/>
				<path id="&lt;Path&gt;" class="s1" d="m978.2 131.2l11.8 2.1-1.7 1.5 16.8 1.6-20.5 2.1-13.1-7.3z"/>
				<path id="&lt;Path&gt;" class="s1" d="m1017.2 111.7l-20.9 0.6 8.8-1.5 5.4-1.3z"/>
				<path id="&lt;Path&gt;" class="s1" d="m996.3 96l4 1.7-8.2 1-6.1-2z"/>
				<path id="&lt;Path&gt;" class="s1" d="m1032.8 139l-15.6-0.5-8.6-1.7 8.6-1.2z"/>
				<path id="&lt;Path&gt;" class="s1" d="m1053.4 166.2l5.3 1.5-2.5 2.1-17.4-1.1 5.1-3.1z"/>
				<path id="&lt;Path&gt;" class="s1" d="m1087.3 85.1v4.4l-9.2 0.4-7.5-5.5z"/>
				<path id="&lt;Path&gt;" class="s1" d="m1070.6 93.9l2.5 4.8-7.1 19.4 3.6-1.5-10.9 13-5.3-0.1z"/>
				<path id="&lt;Path&gt;" class="s1" d="m1144.1 211.3l42.7 6.5-67.2-0.4 3.1-3.4h-59.4l74.7-2.7z"/>
				<path id="&lt;Path&gt;" class="s1" d="m1015.5 199.6h13.4l-3.4 2.5 23.2 2.5-55.6 1.3z"/>
				<path id="&lt;Path&gt;" class="s1" d="m350.6 161.1l-12.9 2.3-13.7-4.6z"/>
				<path id="&lt;Path&gt;" class="s1" d="m511.7 166.2l11.1-3.3 33.4 5.9-28.4 7.4-21.7-6.1z"/>
				<path id="&lt;Path&gt;" class="s1" d="m549.6 119.9l4.4 10.7-8.1 7.3 4.6 3.3h-27.7z"/>
				<path id="&lt;Path&gt;" class="s1" d="m584.1 147.9h-34.1l16.8-3.9z"/>
				<path id="&lt;Path&gt;" class="s1" d="m501.8 167.5l-11.3 5.4 8.4-16.2z"/>
				<path id="&lt;Path&gt;" class="s1" d="m490.5 186.8l9.2 4.9 12.8 2.1-25.9 0.2z"/>
				<path id="&lt;Path&gt;" class="s1" d="m538.4 214l41.5-2-12.8 3.9z"/>
				<path id="&lt;Path&gt;" class="s1" d="m606.9 186.2l-12.6 0.6 2.3 2.2-35.5-2.2 17.3-1.1 15.1-3.9z"/>
				<path id="&lt;Path&gt;" class="s1" d="m589.7 170.1l-15-0.6 9.4-1.6z"/>
				<path id="&lt;Path&gt;" class="s1" d="m639.8 189l11.2 1.4-8 1.8 6.2 1.8-18.9 2.2z"/>
				<path id="&lt;Path&gt;" class="s1" d="m762.8 176.5l-10.5-6.4-2-0.6-11.7-19.7z"/>
				<path id="&lt;Path&gt;" class="s1" d="m738.6 119.9l-11.4-13.8-16.7-5.5 4.2-3.4h-13.1l17.8-8.9z"/>
				<path id="&lt;Path&gt;" class="s1" d="m677.1 171.2l-15.3-1.1 7.5-4.5z"/>
				<path id="&lt;Path&gt;" class="s1" d="m657.6 153.4l4.2 3.3-14.2 3.4z"/>
				<path id="&lt;Path&gt;" class="s1" d="m697.7 53.3h3.9l-13.4 12.2 8.9-24.4z"/>
				<path id="&lt;Path&gt;" class="s1" d="m712.2 53.9l0.7 3.5-9.1-3.5h2.8z"/>
				<path id="&lt;Path&gt;" class="s1" d="m694.9 176.2l40.8 0.3-15.6 5.8-11.7-0.5z"/>
				<path id="&lt;Path&gt;" class="s1" d="m681.5 194l6.7 2.2 24.7 5.9-24.7-2.5z"/>
				<path id="&lt;Path&gt;" class="s1" d="m784.5 197.4l-7.1 7.2-35.5-2.5 20.9-4.7z"/>
				<path id="&lt;Path&gt;" class="s1" d="m841.3 147.3l19.3 7.5-7.6 5.3-17.5-5.3z"/>
				<path id="&lt;Path&gt;" class="s1" d="m835.5 179.8l12.5 24.8-6.2-2.5-13.8 1.1z"/>
				<path id="&lt;Path&gt;" class="s1" d="m866.8 136.7h-13.8l-11.7-1.9 5.9-1.7z"/>
				<path id="&lt;Path&gt;" class="s1" d="m868.1 36.3l-5.5 27.8h4.2l-14.6 8.9z"/>
				<path id="&lt;Path&gt;" class="s1" d="m694.9 139.2l18-2.5 9.8 2.5z"/>
				<path id="&lt;Path&gt;" class="s1" d="m486.6 206.2l19.5 3.5-6.6 2.3-16.8-4.6z"/>
				<path id="&lt;Path&gt;" class="s1" d="m1160.3 182.3l5.5 3.9-5 2.8-8.3-2.8z"/>
				<path id="&lt;Path&gt;" class="s1" d="m1204.3 88.3v2 9.2l20.6 1.3-29.5 5.3v-5.5z"/>
				<path id="&lt;Path&gt;" class="s1" d="m1218.7 50.5l6.2 3.4-7 11.4v-4.8h-3z"/>
				<path id="&lt;Path&gt;" class="s1" d="m1238.8 145.1l-10.3 6.4h-10.9l2.3-5.3 10.5-5z"/>
				<path id="&lt;Path&gt;" class="s1" d="m1243.8 164.5l-13.9 1.4 4.4-2.5h4.5z"/>
				<path id="&lt;Path&gt;" class="s1" d="m1251 180.7l-10.3 1.6h-18.6l16.7-1.6 5-2.3z"/>
				<path id="&lt;Path&gt;" class="s1" d="m1280.8 210.4l-35 3.6-50.4-4.1h41.2l22.8-10.3z"/>
				<path id="&lt;Path&gt;" class="s1" d="m1146.9 199.6l24.5 5h-10-20.9-10.1z"/>
				<path id="&lt;Path&gt;" class="s1" d="m1195.4 116.1l6.3 1.4-3.7 2.4h18.2l-20.8 4.3-15.6-2.4 5-6.2z"/>
				<path id="&lt;Path&gt;" class="s1" d="m1144.5 211.3l42.7 6.5-67.2-0.4 3.1-3.4h-59.5l74.8-2.7z"/>
				<path id="&lt;Path&gt;" class="s1" d="m1201.9 161.1l-12.9 2.3-13.7-4.6z"/>
				<path id="&lt;Path&gt;" class="s1" d="m1363 166.2l11.1-3.3 33.4 5.9-28.4 7.4-21.7-6.1z"/>
				<path id="&lt;Path&gt;" class="s1" d="m1400.8 119.9l4.5 10.7-8.1 7.3 4.6 3.3h-27.7z"/>
				<path id="&lt;Path&gt;" class="s1" d="m1435.4 147.9h-34.1l16.8-3.9z"/>
				<path id="&lt;Path&gt;" class="s1" d="m1353.1 167.5l-11.3 5.4 8.4-16.2z"/>
				<path id="&lt;Path&gt;" class="s1" d="m1341.8 186.8l9.2 4.9 12.7 2.1-25.8 0.2z"/>
				<path id="&lt;Path&gt;" class="s1" d="m1389.7 214l41.5-2-12.8 3.9z"/>
				<path id="&lt;Path&gt;" class="s1" d="m1458.2 186.2l-12.6 0.6 2.3 2.2-35.5-2.2 17.3-1.1 15.1-3.9z"/>
				<path id="&lt;Path&gt;" class="s1" d="m1440.9 170.1l-14.9-0.6 9.4-1.6z"/>
				<path id="&lt;Path&gt;" class="s1" d="m1491.1 189l11.2 1.4-8 1.8 6.2 1.8-18.9 2.2z"/>
				<path id="&lt;Path&gt;" class="s1" d="m1614.1 176.5l-10.6-6.4-1.9-0.6-11.7-19.7z"/>
				<path id="&lt;Path&gt;" class="s1" d="m1589.9 119.9l-11.4-13.8-16.7-5.5 4.2-3.4h-13.1l17.8-8.9z"/>
				<path id="&lt;Path&gt;" class="s1" d="m1528.4 171.2l-15.3-1.1 7.5-4.5z"/>
				<path id="&lt;Path&gt;" class="s1" d="m1508.9 153.4l4.2 3.3-14.2 3.4z"/>
				<path id="&lt;Path&gt;" class="s1" d="m1549 53.3h3.9l-13.4 12.2 8.9-24.4z"/>
				<path id="&lt;Path&gt;" class="s1" d="m1563.4 53.9l0.8 3.5-9.1-3.5h2.8z"/>
				<path id="&lt;Path&gt;" class="s1" d="m1546.2 176.2l40.8 0.3-15.6 5.8-11.7-0.5z"/>
				<path id="&lt;Path&gt;" class="s1" d="m1532.8 194l6.7 2.2 24.7 5.9-24.7-2.5z"/>
				<path id="&lt;Path&gt;" class="s1" d="m1635.8 197.4l-7.1 7.2-35.5-2.5 20.9-4.7z"/>
				<path id="&lt;Path&gt;" class="s1" d="m1692.6 147.3l19.2 7.5-7.5 5.3-17.5-5.3z"/>
				<path id="&lt;Path&gt;" class="s1" d="m1686.8 179.8l12.5 24.8-6.2-2.5-13.8 1.1z"/>
				<path id="&lt;Path&gt;" class="s1" d="m1718.1 136.7h-13.8l-11.7-1.9 5.9-1.7z"/>
				<path id="&lt;Path&gt;" class="s1" d="m1719.4 36.3l-5.5 27.8h4.2l-14.6 8.9z"/>
				<path id="&lt;Path&gt;" class="s1" d="m1546.2 139.2l18-2.5 9.8 2.5z"/>
				<path id="&lt;Path&gt;" class="s1" d="m1337.9 206.2l19.5 3.5-6.6 2.3-16.8-4.6z"/>
				<path id="&lt;Path&gt;" class="s3" d="m828 203.2l7.5-23.4v-25l5.8-7.5v-12.5l5.9-1.7 5-13.2v-46.9l15.9-36.7-11.9 35.1v49.2l-5.1 13.2 5.1 2.2-4 1.9-7.6-2.6-3.1 15.7 3 6.5-6.5-0.8-0.6 26.9z"/>
				<path id="&lt;Path&gt;" class="s3" d="m955.9 176.2l15.6-45h6.7l7.8-34.5 10.3-0.7 5.8-76.6-4.3 77.2 2.5 1.1-7.2 2.1-4.8-1.4-9.3 34 9.9 0.7-6.3 3.6-5.5-2.4-3.4-1.9z"/>
				<path id="&lt;Path&gt;" class="s3" d="m1053.5 163.4l-0.1-33.9 17.2-35.6v-9.5l2.5 0.9v10.4l-17.3 33z"/>
				<path id="&lt;Path&gt;" class="s4" d="m1164.8 151.5l6.6-21.4 12.4-17.8 11.6 3.8-10.6-0.5-6.1 8.3-2 2.3-7.9 19.4-8.5 36.7z"/>
				<path id="&lt;Path&gt;" class="s3" d="m706.6 33.3l-3.7 10.6-4-1.1-7.5 21.7-2.9 112.5-0.3-113.8 8.9-22.1z"/>
				<path id="&lt;Path&gt;" class="s3" d="m630.3 196.2l9.5-7.2 7.8-28.9 1.6-1.1 8.4-5.6 3.9-20 7.8-20.6-5.6 20.7-4.5 20.6 1.5 2.1-12.2 5.4-5.1 21.1-1.8 7.4z"/>
				<path id="&lt;Path&gt;" class="s3" d="m584.1 147.9l-17.1-1.7-0.2-2.2z"/>
				<path id="&lt;Path&gt;" class="s3" d="m589.7 170.1l-7.8-2 2.2-0.2z"/>
				<path id="&lt;Path&gt;" class="s3" d="m554 130.6l-5.9-5.9-23.2 17.6-2.1 20.6v-21.7l26.8-21.3 3.7 8.9 6.8-1z"/>
				<path id="&lt;Path&gt;" class="s3" d="m522.8 162.9l-0.2 2.7-10.9 0.6z"/>
				<path id="&lt;Path&gt;" class="s3" d="m499.8 168.5l-8 3.8 2.6 15.5-6.2 6.2-1.6 12.2v-12.2l3.9-7.2v-13.9l8.4-16.2z"/>
				<path id="&lt;Path&gt;" class="s3" d="m396.2 181.2l-6.7 1.1-16.1-0.8 14.1-0.8 1.9-0.7v-14.2h-1.9l-8.9 0.1 4.5-2.5 0.5-15.9-6.7-4.1 2.3-60.6v58.4l8.3 3.9 1.3 16.8 3.7 2.6v13.9l7.3 2.3 8.3 18.9z"/>
				<path id="&lt;Path&gt;" class="s3" d="m373.6 53.9v27.2l5.6 1.7v1.2l-0.3 5.8-4-4-3-4.4-0.8-23.5-4.5 2.6 5.1-8.7z"/>
				<path id="&lt;Path&gt;" class="s3" d="m370.8 16l0.9 35.8-3.3-35.1z"/>
				<path id="&lt;Path&gt;" class="s3" d="m236.4 85.1l1.2 3.2 11.6 12.3 7.7 50.9 5.1 3-7.5 2.4-19.4 1.9 14.1-4 5.5-2.5-7.7-50.3-16.3-10.9-4.3-6z"/>
				<path id="&lt;Path&gt;" class="s3" d="m268.7 171.2l-12.3-4.1 5.6-3.1z"/>
				<path id="&lt;Path&gt;" class="s3" d="m166.3 111.7l-12.1-0.9 5.4-1.3z"/>
				<path id="&lt;Path&gt;" class="s3" d="m155.4 19.4l3.8 81.7-8-81.7z"/>
			</g>
		</g>
	</g>
</svg>